<svg width="47" height="19" viewBox="0 0 47 19" fill="none" xmlns="http://www.w3.org/2000/svg">
<g clip-path="url(#clip0_761_10253)">
<path fill-rule="evenodd" clip-rule="evenodd" d="M2.87005 0.916026C3.47667 0.905244 4.06274 1.13585 4.49935 1.55713C4.93597 1.97841 5.18737 2.55586 5.19827 3.16248C5.20669 3.6847 5.03615 4.19408 4.71499 4.60596C4.39383 5.01783 3.94139 5.3074 3.43287 5.42654L3.45008 6.44017L4.83056 6.41673L4.84704 7.38712L3.46656 7.41055L3.4868 8.60306C3.97425 8.70462 4.4127 8.96881 4.73026 9.35231C5.04782 9.73581 5.22562 10.2158 5.23451 10.7137C5.23916 11.002 5.18698 11.2884 5.08093 11.5566C4.97488 11.8247 4.81705 12.0693 4.61645 12.2765C4.41584 12.4836 4.1764 12.6492 3.91179 12.7638C3.64718 12.8784 3.36259 12.9398 3.07427 12.9444C2.78595 12.9496 2.49944 12.8979 2.23109 12.7924C1.96275 12.6868 1.71782 12.5294 1.5103 12.3292C1.30278 12.129 1.13674 11.8899 1.02165 11.6255C0.906557 11.3611 0.844679 11.0766 0.839545 10.7883C0.831526 10.2904 0.992931 9.80466 1.29729 9.4106C1.60164 9.01654 2.03088 8.73761 2.51459 8.61956L2.49435 7.42706L1.11387 7.4505L1.09739 6.48011L2.47787 6.45667L2.46066 5.44304C1.94839 5.34124 1.48639 5.0672 1.15143 4.66646C0.816473 4.26572 0.628738 3.76243 0.619427 3.24022C0.609731 2.63358 0.841389 2.04793 1.26345 1.61207C1.68551 1.17621 2.26341 0.925842 2.87005 0.916026ZM8.46618 8.46479C8.17784 8.46939 7.89322 8.53073 7.62859 8.64532C7.36395 8.75992 7.12448 8.92551 6.92384 9.13265C6.7232 9.33979 6.56532 9.58442 6.45923 9.85257C6.35313 10.1207 6.30089 10.4072 6.30548 10.6955C6.31068 10.9838 6.37261 11.2683 6.48775 11.5327C6.60289 11.7971 6.76898 12.0362 6.97653 12.2364C7.18409 12.4367 7.42905 12.594 7.69742 12.6996C7.96579 12.8051 8.25233 12.8568 8.54066 12.8516C8.82898 12.847 9.11357 12.7856 9.37818 12.671C9.64279 12.5564 9.88224 12.3908 10.0828 12.1837C10.2834 11.9765 10.4413 11.7319 10.5473 11.4638C10.6534 11.1956 10.7056 10.9092 10.7009 10.6209C10.6904 10.0386 10.4491 9.4844 10.03 9.08007C9.61094 8.67574 9.04842 8.45442 8.46618 8.46479ZM3.09242 14.0135C3.38073 14.0083 3.66724 14.06 3.93559 14.1655C4.20393 14.2711 4.44886 14.4285 4.65638 14.6287C4.8639 14.8289 5.02995 15.068 5.14504 15.3324C5.26012 15.5968 5.322 15.8813 5.32714 16.1696C5.33179 16.4579 5.27961 16.7443 5.17356 17.0125C5.06751 17.2806 4.90968 17.5253 4.70908 17.7324C4.50847 17.9396 4.26903 18.1052 4.00442 18.2198C3.73981 18.3344 3.45522 18.3957 3.16689 18.4003C2.87858 18.4055 2.59207 18.3538 2.32372 18.2483C2.05538 18.1427 1.81045 17.9854 1.60293 17.7852C1.39541 17.5849 1.22937 17.3458 1.11428 17.0814C0.999187 16.817 0.937309 16.5325 0.932175 16.2442C0.927519 15.9559 0.979705 15.6695 1.08575 15.4013C1.1918 15.1332 1.34963 14.8886 1.55024 14.6814C1.75084 14.4743 1.99028 14.3087 2.25489 14.1941C2.5195 14.0795 2.8041 14.0181 3.09242 14.0135ZM8.55881 13.9207C8.27047 13.9253 7.98585 13.9867 7.72122 14.1013C7.45658 14.2158 7.21711 14.3814 7.01647 14.5886C6.81583 14.7957 6.65795 15.0403 6.55186 15.3085C6.44576 15.5767 6.39352 15.8631 6.39811 16.1514C6.40331 16.4398 6.46524 16.7242 6.58038 16.9886C6.69552 17.253 6.86161 17.4922 7.06916 17.6924C7.27672 17.8926 7.52168 18.05 7.79005 18.1555C8.05842 18.261 8.34496 18.3127 8.63329 18.3075C8.92161 18.3029 9.2062 18.2415 9.47081 18.1269C9.73542 18.0124 9.97487 17.8468 10.1755 17.6396C10.3761 17.4325 10.5339 17.1878 10.64 16.9197C10.746 16.6515 10.7982 16.3651 10.7935 16.0768C10.783 15.4946 10.5417 14.9403 10.1226 14.536C9.70357 14.1317 9.14105 13.9104 8.55881 13.9207ZM2.88691 1.90917C3.05676 1.90611 3.22554 1.93654 3.38363 1.99872C3.54171 2.0609 3.686 2.15362 3.80824 2.27157C3.93049 2.38953 4.0283 2.53041 4.09608 2.68617C4.16387 2.84194 4.2003 3.00953 4.20331 3.17938C4.20607 3.34923 4.17535 3.51796 4.11289 3.67593C4.05043 3.83391 3.95746 3.97803 3.83929 4.10007C3.72112 4.2221 3.58006 4.31967 3.42418 4.38718C3.2683 4.45469 3.10064 4.49083 2.93079 4.49353C2.76094 4.4966 2.59216 4.46617 2.43407 4.40399C2.27599 4.34181 2.1317 4.24909 2.00946 4.13113C1.88721 4.01318 1.7894 3.8723 1.72162 3.71653C1.65383 3.56077 1.6174 3.39318 1.61439 3.22333C1.61163 3.05348 1.64235 2.88475 1.70481 2.72677C1.76727 2.5688 1.86024 2.42467 1.97841 2.30264C2.09658 2.1806 2.23764 2.08304 2.39352 2.01553C2.5494 1.94802 2.71706 1.91188 2.88691 1.90917ZM19.3908 18.0169L19.0162 18.0233C18.8879 18.0262 18.7602 18.0032 18.6409 17.9557C18.5216 17.9082 18.4131 17.8372 18.3218 17.7469C18.2324 17.6585 18.1601 17.5543 18.1085 17.4396C18.0551 17.32 18.0267 17.1908 18.0251 17.0599L17.9938 15.2156L15.3516 15.2605L15.383 17.1048C15.3853 17.2409 15.3615 17.3683 15.3125 17.487C15.2649 17.6038 15.1956 17.7104 15.1084 17.8015C15.0206 17.8917 14.9169 17.965 14.8025 18.0174C14.6864 18.0704 14.5603 18.099 14.4251 18.1013L14.051 18.1076L13.9391 11.5211L14.3133 11.5147C14.4485 11.5124 14.5755 11.5371 14.6933 11.5861C14.8111 11.6351 14.9152 11.703 15.0063 11.7898C15.0971 11.8779 15.168 11.9792 15.221 12.0957C15.2739 12.2128 15.302 12.3393 15.3043 12.474L15.3329 14.1554L17.975 14.1105L17.9465 12.4292C17.9438 12.2987 17.9677 12.1691 18.017 12.0483C18.066 11.93 18.1334 11.8264 18.2197 11.7352C18.3047 11.6455 18.4068 11.5741 18.5243 11.5211C18.6418 11.4681 18.7692 11.4391 18.9044 11.4368L19.279 11.4304L19.3908 18.0169ZM24.5717 16.9797C24.5494 17.0131 24.5252 17.0452 24.4991 17.0756C24.4668 17.114 24.4335 17.1516 24.3995 17.1884C24.3646 17.2282 24.3284 17.2643 24.2935 17.3004L24.1998 17.3903C24.1397 17.4432 24.0772 17.4933 24.0125 17.5406C23.9447 17.5901 23.8735 17.6348 23.7995 17.6744C23.7195 17.7185 23.6366 17.7571 23.5515 17.7901C23.462 17.8237 23.3711 17.853 23.2789 17.8781C23.179 17.9048 23.0774 17.9247 22.9748 17.9374C22.8652 17.9521 22.7548 17.9602 22.6443 17.9617C22.2733 17.968 21.946 17.9135 21.6572 17.7973C21.5139 17.7422 21.3766 17.673 21.2471 17.5907C20.8733 17.356 20.5871 17.0049 20.4325 16.5915C20.3172 16.3054 20.2565 16.0002 20.2537 15.6917L20.2508 15.5197C20.2477 15.3372 20.2589 15.1649 20.2807 15.002C20.3039 14.8377 20.3413 14.6791 20.3929 14.5279C20.4923 14.2194 20.634 13.957 20.8165 13.7386C21.0067 13.5177 21.2422 13.3404 21.507 13.2187C21.7731 13.0936 22.0784 13.0278 22.4247 13.022C22.7697 13.0161 23.0711 13.067 23.3256 13.1756C23.4586 13.2339 23.5804 13.2996 23.6896 13.3752C23.9104 13.5336 24.0941 13.7382 24.2279 13.9748C24.296 14.0961 24.3538 14.2299 24.4009 14.3747C24.461 14.564 24.5032 14.7723 24.5239 14.9996L24.5278 15.2303C24.5249 15.3193 24.5038 15.4068 24.4657 15.4873C24.4289 15.565 24.3779 15.6352 24.3154 15.6942C24.2523 15.7528 24.1797 15.8001 24.1006 15.834C24.0194 15.8684 23.9324 15.8867 23.8443 15.888L21.5394 15.9271C21.553 16.0057 21.5711 16.0782 21.5941 16.1475C21.6148 16.2168 21.6423 16.2814 21.6725 16.3415C21.7379 16.4687 21.8213 16.5757 21.9229 16.6623C22.0136 16.7472 22.129 16.8154 22.2682 16.864C22.3924 16.9097 22.5407 16.9322 22.7114 16.9293C22.944 16.9254 23.1559 16.8799 23.3501 16.7915C23.4875 16.7318 23.6102 16.6896 23.7159 16.6674C23.8105 16.645 23.908 16.637 24.0051 16.6438C24.0899 16.6519 24.169 16.6724 24.2369 16.7068C24.3072 16.7397 24.3726 16.785 24.4336 16.8414L24.5717 16.9797ZM21.6348 14.6553C21.587 14.7866 21.5563 14.9234 21.5433 15.0625L23.303 15.0326L23.3012 14.9275C23.2965 14.8074 23.2758 14.6885 23.2396 14.5738C23.2031 14.4713 23.1483 14.3763 23.0778 14.2934C23.0045 14.2142 22.9139 14.1531 22.813 14.1149C22.7574 14.0902 22.6985 14.0736 22.6382 14.0655C22.5718 14.0559 22.5048 14.0518 22.4377 14.0534C22.3116 14.0519 22.1867 14.079 22.0725 14.1325C21.9722 14.1824 21.8832 14.2524 21.811 14.3381C21.7342 14.4327 21.6745 14.54 21.6348 14.6553ZM27.7969 14.2688L27.774 14.2647C27.7321 14.2622 27.692 14.2615 27.6551 14.2603C27.6164 14.2596 27.5782 14.2589 27.5395 14.2595C27.4253 14.2601 27.3115 14.2729 27.2 14.2976C27.1049 14.3176 27.0141 14.3543 26.9319 14.406C26.8594 14.4484 26.793 14.5006 26.7346 14.5609C26.6769 14.6211 26.6289 14.6916 26.592 14.7696L26.6347 17.2825C26.6371 17.3677 26.6226 17.4525 26.5919 17.532C26.5612 17.6114 26.515 17.684 26.4559 17.7454C26.3988 17.8054 26.3307 17.8539 26.2552 17.8881C26.1782 17.9221 26.0953 17.9404 26.0111 17.9421C25.927 17.9438 25.8433 17.9288 25.765 17.898C25.6867 17.8672 25.6152 17.8212 25.5548 17.7627C25.4943 17.7041 25.4461 17.6342 25.4128 17.5569C25.3788 17.4769 25.3607 17.3911 25.3593 17.3042L25.2864 13.0062L25.2865 13.0107L25.5527 13.0062C25.7685 13.0057 25.9638 13.0593 26.1378 13.1665C26.3135 13.2737 26.447 13.4167 26.5407 13.5963C26.6273 13.4136 26.7559 13.2662 26.9279 13.1531C27.1006 13.0395 27.3019 12.9771 27.5085 12.973L27.7748 12.9685L27.7969 14.2688ZM31.1092 15.9395L32.216 12.0007C32.2532 11.859 32.3174 11.7259 32.4052 11.6087C32.492 11.4943 32.5937 11.3983 32.7126 11.3235C32.9548 11.166 33.2466 11.1037 33.5319 11.1484L33.9167 11.2056L31.9515 17.1995C31.8965 17.3755 31.7868 17.5294 31.6384 17.6387C31.4909 17.7482 31.3225 17.8053 31.1359 17.8084C30.947 17.8116 30.7763 17.7604 30.6238 17.6541C30.474 17.5494 30.3609 17.4002 30.3006 17.2276L28.1566 11.3248L28.5032 11.251C28.6525 11.2221 28.8 11.2196 28.9457 11.2463C29.0891 11.2721 29.2238 11.3221 29.347 11.3929C29.4698 11.4655 29.5779 11.5579 29.6704 11.671C29.7616 11.7856 29.8316 11.916 29.8792 12.0622L31.1092 15.9395ZM38.4821 16.7435C38.46 16.777 38.4359 16.809 38.4099 16.8395C38.3773 16.8777 38.344 16.9153 38.3099 16.9523C38.275 16.992 38.2388 17.0281 38.2039 17.0642L38.1102 17.1542C38.0502 17.2071 37.9877 17.2573 37.9229 17.3044C37.8552 17.354 37.784 17.3987 37.7099 17.4382C37.63 17.4822 37.5473 17.5209 37.4623 17.554C37.3764 17.5864 37.2845 17.6157 37.1897 17.6419C37.0899 17.6686 36.9883 17.6884 36.8857 17.7013C36.7759 17.7159 36.6654 17.724 36.5547 17.7255C36.1837 17.7318 35.8564 17.6773 35.568 17.5611C35.4246 17.5062 35.2871 17.437 35.1575 17.3545C34.7843 17.1192 34.4982 16.7683 34.3429 16.3554C34.2277 16.0692 34.1672 15.764 34.1646 15.4555L34.1617 15.2835C34.1586 15.101 34.1693 14.9287 34.1911 14.7658C34.2137 14.6046 34.2512 14.4459 34.3033 14.2918C34.4027 13.9832 34.5444 13.7208 34.7274 13.5024C34.9175 13.2815 35.153 13.1042 35.4179 12.9826C35.6835 12.8574 35.9892 12.7917 36.3356 12.7858C36.6806 12.7799 36.9815 12.8308 37.236 12.9394C37.3695 12.9977 37.4908 13.0635 37.6 13.139C37.7092 13.215 37.809 13.303 37.8986 13.4053C37.9896 13.5057 38.0702 13.6177 38.1383 13.7386C38.2068 13.8599 38.2642 13.9937 38.3113 14.1386C38.3718 14.3279 38.4136 14.5361 38.4343 14.7634L38.4383 14.9942C38.4355 15.0831 38.4145 15.1706 38.3766 15.2511C38.302 15.4079 38.1719 15.5314 38.0114 15.5978C37.9301 15.6322 37.8429 15.6506 37.7546 15.6518L35.4498 15.691C35.4749 15.8346 35.5199 15.974 35.5834 16.1053C35.6483 16.2326 35.7321 16.3395 35.8337 16.4261C35.924 16.5111 36.0394 16.5792 36.1791 16.6279C36.3028 16.6736 36.4511 16.6961 36.6223 16.6932C36.8544 16.6892 37.0663 16.6437 37.2605 16.5553C37.3979 16.4956 37.5206 16.4535 37.6263 16.4312C37.7324 16.408 37.8293 16.4 37.9155 16.4076C38.0007 16.4157 38.0794 16.4362 38.1478 16.4706C38.2176 16.5036 38.283 16.5489 38.344 16.6052L38.4821 16.7435ZM35.5452 14.4191C35.4983 14.5506 35.4676 14.6874 35.4537 14.8263L37.2134 14.7964L37.2116 14.6913C37.2068 14.5713 37.1863 14.4524 37.1505 14.3377C37.1137 14.2352 37.0587 14.1402 36.9882 14.0572C36.9151 13.978 36.8246 13.9169 36.7238 13.8787C36.668 13.8541 36.609 13.8375 36.5486 13.8293C36.4822 13.8197 36.4152 13.8156 36.3481 13.8172C36.2034 13.8197 36.0827 13.8463 35.9829 13.8963C35.8826 13.9462 35.7936 14.0162 35.7214 14.102C35.6447 14.1966 35.5851 14.304 35.5452 14.4191ZM43.0513 15.6188C43.148 15.7861 43.1974 15.9897 43.2015 16.2295C43.2051 16.4435 43.1606 16.6409 43.0667 16.8173C42.9804 16.9936 42.8492 17.1511 42.6744 17.287C42.5857 17.357 42.4896 17.4172 42.3879 17.4667C42.2841 17.5181 42.1706 17.5651 42.0484 17.6072C41.8048 17.6842 41.5314 17.7244 41.2232 17.7296C40.8782 17.7355 40.5788 17.6927 40.3278 17.5996C40.2061 17.5581 40.0879 17.5073 39.9742 17.4476C39.8658 17.3912 39.7655 17.3205 39.676 17.2373C39.5762 17.1432 39.4867 17.0388 39.4089 16.9259C39.3442 16.8288 39.2884 16.7262 39.2421 16.6191C39.2053 16.5326 39.1765 16.4428 39.1561 16.351C39.1414 16.284 39.1329 16.2157 39.1307 16.147L39.1259 15.5662L39.383 15.5618C39.5291 15.5593 39.668 15.5847 39.7982 15.6385C39.9289 15.6919 40.044 15.7678 40.1457 15.8616C40.2524 15.9746 40.3289 16.1144 40.3732 16.2807C40.3801 16.3102 40.3883 16.341 40.3975 16.37C40.4384 16.49 40.5184 16.5929 40.6246 16.6621C40.7024 16.7118 40.7955 16.7521 40.9008 16.7844C41.0041 16.8091 41.114 16.8209 41.231 16.8189C41.4772 16.8147 41.6612 16.7638 41.7824 16.6643C41.8405 16.6232 41.8875 16.5682 41.919 16.5044C41.9505 16.4406 41.9656 16.3699 41.9629 16.2988C41.9617 16.2292 41.947 16.1671 41.9183 16.1134C41.8863 16.0483 41.8346 15.995 41.7705 15.9611C41.7284 15.933 41.6838 15.909 41.6373 15.8891C41.5812 15.8646 41.5243 15.8418 41.4667 15.821C41.3943 15.7986 41.3209 15.7797 41.2468 15.7642C41.157 15.7443 41.0674 15.7236 40.978 15.7023C40.745 15.6569 40.5158 15.594 40.2923 15.514C40.0984 15.4443 39.915 15.3483 39.7471 15.2287C39.6745 15.1706 39.6069 15.1066 39.5449 15.0373C39.4846 14.9697 39.4318 14.8958 39.3872 14.8169C39.3014 14.6681 39.2555 14.4877 39.2519 14.2756C39.2487 14.0821 39.2882 13.8907 39.3683 13.7022C39.459 13.5163 39.581 13.3562 39.7344 13.2239C39.9116 13.0741 40.1149 12.9583 40.3342 12.8822C40.5911 12.7962 40.8601 12.7518 41.131 12.7508C41.45 12.7454 41.7274 12.778 41.9676 12.8495C42.0912 12.8893 42.2045 12.9356 42.31 12.9862C42.4143 13.0372 42.5109 13.0975 42.5999 13.1657C42.7729 13.2961 42.9085 13.4545 43.005 13.6437C43.0945 13.8202 43.1457 14.0146 43.1538 14.2262L43.1643 14.8425L42.8948 14.847C42.7379 14.852 42.5819 14.8209 42.4389 14.756C42.3043 14.6936 42.185 14.6025 42.0893 14.4892C42.07 14.4691 42.0537 14.4464 42.0408 14.4217C42.022 14.3894 42.0059 14.3555 41.9926 14.3206C41.9757 14.2829 41.9606 14.2444 41.9474 14.2052C41.9336 14.1683 41.9218 14.1306 41.9118 14.0925C41.895 14.0308 41.8685 13.9723 41.8333 13.919C41.796 13.8611 41.7469 13.8119 41.6892 13.7744C41.6207 13.7249 41.5416 13.6922 41.4581 13.679C41.3534 13.6638 41.2476 13.6578 41.1419 13.6612C40.9279 13.6648 40.764 13.7172 40.6469 13.8198C40.5902 13.8638 40.5448 13.9208 40.5146 13.9859C40.4844 14.0511 40.4703 14.1226 40.4735 14.1943C40.475 14.2628 40.4947 14.3297 40.5306 14.3881C40.5665 14.4466 40.6172 14.4944 40.6776 14.5268C40.7117 14.5513 40.7508 14.5738 40.7957 14.5931C40.8425 14.6142 40.8948 14.6351 40.9552 14.6541C41.0129 14.6714 41.076 14.689 41.1455 14.7065C41.2154 14.7226 41.2908 14.7381 41.3712 14.7523C41.6251 14.7957 41.8674 14.854 42.0967 14.9257C42.2084 14.9611 42.3119 15.0013 42.4051 15.0475C42.4997 15.0955 42.5871 15.1468 42.67 15.2023C42.7525 15.2583 42.8246 15.3222 42.8872 15.3926C42.9499 15.4612 43.0053 15.5376 43.0513 15.6188ZM45.8294 16.6885C45.8418 16.6914 45.8755 16.6936 45.9311 16.6977C45.9867 16.7013 46.045 16.7035 46.107 16.7038L46.2795 16.7054C46.3319 16.7063 46.3642 16.7058 46.3765 16.7024L46.3806 16.9468C46.3824 17.0524 46.3622 17.1502 46.3223 17.2406C46.282 17.3284 46.2266 17.4085 46.1588 17.4773C46.0899 17.5451 46.0079 17.5981 45.9179 17.633C45.825 17.6694 45.7252 17.6843 45.6258 17.6767C45.4673 17.6672 45.3093 17.6503 45.1524 17.626C45.0739 17.6132 44.9989 17.5844 44.932 17.5414C44.8678 17.4983 44.8064 17.4513 44.7479 17.4007C44.6325 17.2885 44.5439 17.1519 44.4885 17.0008C44.4527 16.9133 44.4279 16.8216 44.4146 16.728C44.3986 16.6194 44.39 16.5099 44.389 16.4001L44.3407 13.5513L43.6952 13.5623L43.6902 13.2633C43.6887 13.1136 43.7466 12.9695 43.8514 12.8626C43.9574 12.754 44.1019 12.6915 44.2536 12.6887L44.326 12.6875L44.3004 11.1823L44.5608 11.1778C44.684 11.1755 44.8065 11.1982 44.9207 11.2446C45.0339 11.2909 45.132 11.3544 45.218 11.4362C45.3028 11.5185 45.3704 11.6148 45.4201 11.7255C45.4698 11.8362 45.4964 11.9551 45.4985 12.082L45.5085 12.6674L46.2567 12.6547L46.2617 12.9487C46.2632 13.0234 46.2499 13.0977 46.2226 13.1673C46.1953 13.2369 46.1546 13.3004 46.1027 13.3542C46.0509 13.408 45.9889 13.4511 45.9204 13.481C45.8518 13.5108 45.7781 13.5269 45.7034 13.5282L45.5231 13.5313L45.5694 16.2531C45.5709 16.3427 45.5813 16.42 45.601 16.4834C45.6124 16.5109 45.6251 16.5353 45.6379 16.5601C45.6499 16.583 45.6671 16.6028 45.688 16.618C45.7264 16.656 45.776 16.6807 45.8294 16.6885Z" fill="white"/>
</g>
<defs>
<clipPath id="clip0_761_10253">
<rect width="45.5219" height="17.7535" fill="white" transform="translate(0.580231 0.955627) rotate(-0.972665)"/>
</clipPath>
</defs>
</svg>
