<svg width="49" height="20" viewBox="0 0 49 20" fill="none" xmlns="http://www.w3.org/2000/svg">
<g clip-path="url(#clip0_761_10239)">
<path d="M20.7143 13.7634L19.6625 13.776L23.9743 2.67057L24.218 2.66644L28.8249 13.6257L27.8491 13.6423L26.5937 10.6449L21.8685 10.7251L20.7143 13.7634ZM22.2173 9.78953L26.211 9.72172L24.1306 4.7873L22.2173 9.78953ZM31.1107 12.2073C31.531 12.498 32.0331 12.6471 32.5439 12.6329C32.8428 12.6306 33.139 12.5739 33.4177 12.4655C33.6753 12.3656 33.911 12.2166 34.1117 12.0266C34.3067 11.8404 34.4589 11.6141 34.558 11.3634C34.6632 11.0906 34.7127 10.7995 34.7038 10.5072C34.7011 10.2369 34.6604 9.96831 34.583 9.70931C34.5032 9.45303 34.375 9.21441 34.2054 9.00633C34.0069 8.7667 33.7718 8.55988 33.5089 8.39352C33.1652 8.17764 32.799 7.99988 32.4167 7.86337C31.6086 7.56156 30.9925 7.18244 30.5681 6.72608C30.1438 6.26973 29.9253 5.67625 29.9125 4.94566C29.9045 4.62503 29.9613 4.30608 30.0795 4.00791C30.1937 3.72217 30.3658 3.46318 30.585 3.24726C30.8149 3.02394 31.0866 2.84834 31.3847 2.7306C31.7187 2.59941 32.0742 2.53135 32.4331 2.52989C32.8876 2.51662 33.338 2.61917 33.7421 2.82788C34.1323 3.03166 34.4605 3.33671 34.6923 3.71103L33.9722 4.25443C33.597 3.7115 33.0894 3.44569 32.4488 3.45696C32.002 3.46454 31.6387 3.60276 31.3585 3.87166C31.078 4.14053 30.9416 4.48836 30.9489 4.9152C30.9479 5.34843 31.1074 5.76666 31.3967 6.08913C31.687 6.41414 32.1952 6.71715 32.9211 6.99817C33.9034 7.36793 34.6154 7.8309 35.057 8.3871C35.4986 8.94327 35.7253 9.63402 35.7372 10.4593C35.7475 10.8678 35.6819 11.2747 35.5438 11.6593C35.4136 12.0252 35.2071 12.3594 34.9381 12.6395C34.6534 12.9281 34.3119 13.1546 33.9353 13.3046C33.4969 13.4755 33.0303 13.5627 32.5597 13.5617C31.8809 13.5791 31.2105 13.4085 30.6226 13.0687C30.0367 12.7328 29.5719 12.2204 29.2944 11.6047L30.1076 10.9966C30.3266 11.4833 30.6732 11.9016 31.1107 12.2073ZM47.6853 9.96894C47.2684 10.9739 46.567 11.8352 45.6673 12.447C44.7674 13.0588 43.7085 13.3946 42.6204 13.4131C41.5324 13.4315 40.4627 13.1319 39.5426 12.5509C38.6226 11.97 37.8924 11.1331 37.4416 10.1429C37.1317 9.46055 36.9684 8.72079 36.9624 7.97143C36.943 7.2221 37.081 6.47704 37.3676 5.78441C37.7848 4.77967 38.4863 3.91862 39.3859 3.30699C40.2858 2.6953 41.3446 2.35963 42.4325 2.34119C43.5205 2.32272 44.59 2.62224 45.51 3.20302C46.43 3.78375 47.1603 4.6205 47.6113 5.6105C47.9215 6.2929 48.0848 7.03291 48.0905 7.78249C48.1102 8.53166 47.9721 9.27659 47.6853 9.96894ZM38.3888 9.76099C38.8633 10.8471 39.746 11.7029 40.8462 12.1436C41.4055 12.3656 42.0033 12.4746 42.6049 12.4644C43.2066 12.4542 43.8005 12.3249 44.3517 12.0841C44.8861 11.8482 45.3698 11.5112 45.7762 11.0917C46.1967 10.6545 46.5262 10.1383 46.7457 9.57284C46.9651 9.0074 47.0701 8.40406 47.0547 7.79776C47.0495 7.19128 46.9241 6.59185 46.6857 6.03418C46.4471 5.47652 46.1002 4.97174 45.6651 4.54906C45.2448 4.14365 44.7499 3.82346 44.2078 3.60616C43.6485 3.38419 43.0508 3.27518 42.4491 3.28542C41.8474 3.29564 41.2535 3.42488 40.7023 3.66567C40.168 3.90135 39.6842 4.23814 39.2778 4.6575C38.8575 5.09474 38.5282 5.61107 38.3089 6.17655C38.0896 6.74194 37.9845 7.34523 37.9999 7.95149C38.0048 8.57404 38.1369 9.18903 38.3881 9.75865L38.3888 9.76099ZM20.3286 17.3122C20.4061 17.3659 20.4987 17.3934 20.593 17.3907C20.6482 17.3902 20.7029 17.3798 20.7543 17.3599C20.8018 17.3414 20.8452 17.3139 20.8821 17.2788C20.9179 17.2446 20.9459 17.2031 20.9642 17.1571C20.9838 17.1067 20.993 17.0529 20.9913 16.9988C20.9907 16.9491 20.9832 16.8996 20.969 16.852C20.9545 16.8046 20.9309 16.7606 20.8996 16.7223C20.863 16.6774 20.8196 16.6387 20.7708 16.6076C20.7073 16.5677 20.6397 16.5348 20.5692 16.5093C20.4422 16.4668 20.3267 16.3958 20.2314 16.3018C20.1502 16.212 20.1064 16.0947 20.1089 15.9737C20.107 15.9136 20.1176 15.8537 20.1399 15.7979C20.1609 15.7451 20.1925 15.6973 20.2327 15.6572C20.2752 15.6162 20.3253 15.584 20.3802 15.5624C20.4417 15.5379 20.5073 15.5253 20.5736 15.5252C20.6573 15.5223 20.7403 15.541 20.8147 15.5796C20.8879 15.6164 20.9496 15.6728 20.9928 15.7425L20.8595 15.8429C20.8297 15.7959 20.7881 15.7576 20.7388 15.7318C20.6896 15.7059 20.6344 15.6935 20.5788 15.6958C20.5044 15.6942 20.4324 15.7216 20.3779 15.7722C20.3523 15.797 20.3322 15.827 20.3192 15.8602C20.3061 15.8934 20.3004 15.929 20.3022 15.9646C20.3019 16.0445 20.3313 16.1217 20.3848 16.1811C20.4645 16.2584 20.5606 16.3167 20.6659 16.3517C20.8177 16.4002 20.9537 16.4887 21.0595 16.6079C21.122 16.6937 21.1628 16.7933 21.1786 16.8982C21.1943 17.0031 21.1844 17.1103 21.1498 17.2106C21.1254 17.2784 21.0866 17.34 21.036 17.3913C20.9832 17.4436 20.9203 17.4845 20.851 17.5113C20.7522 17.5493 20.6464 17.5651 20.5408 17.5577C20.4353 17.5503 20.3326 17.5199 20.2401 17.4685C20.1322 17.4065 20.0466 17.312 19.9953 17.1986L20.1454 17.0862C20.1847 17.1768 20.2481 17.2549 20.3286 17.3122ZM21.4869 17.5472L21.2859 17.5507L22.0881 15.5018L22.1331 15.5011L23.0037 17.5215L22.8028 17.5249L22.5713 16.972L21.6995 16.9868L21.4869 17.5472ZM21.7638 16.8145L22.5006 16.802L22.1169 15.8917L21.7638 16.8145ZM22.7574 15.5407L22.9365 15.4874L23.6223 17.1201L24.25 15.4651L24.4308 15.5123L23.6494 17.5123L23.6044 17.513L22.7574 15.5407ZM24.8905 17.4556L24.6988 17.4588L24.6654 15.4919L24.8571 15.4887L24.8905 17.4556ZM25.511 17.445L25.3193 17.4483L25.2857 15.4668L25.3438 15.4465L26.6975 17.0369L26.6707 15.4596L26.8618 15.4564L26.8954 17.4373L26.8373 17.4582L25.4842 15.8684L25.511 17.445ZM29.0653 16.8045C29.0271 16.9224 28.9669 17.0321 28.8879 17.1277C28.8102 17.2203 28.7137 17.2953 28.6046 17.3475C28.4846 17.404 28.3536 17.4331 28.2209 17.4329C28.0886 17.4358 27.9569 17.4125 27.8336 17.3645C27.7102 17.3165 27.5975 17.2446 27.502 17.153C27.4077 17.0616 27.3315 16.9532 27.2774 16.8337C27.2216 16.7074 27.1917 16.5712 27.1893 16.4331C27.187 16.2951 27.2123 16.158 27.2637 16.0298C27.3403 15.8447 27.4697 15.6861 27.6357 15.5739C27.8017 15.4617 27.9971 15.4007 28.1975 15.3987C28.3587 15.394 28.5186 15.4288 28.6633 15.5C28.8009 15.5665 28.9222 15.6624 29.0187 15.7809L28.8745 15.8932C28.7958 15.7934 28.696 15.7121 28.5823 15.6551C28.4647 15.5955 28.334 15.5662 28.2021 15.5698C28.0911 15.5711 27.9816 15.595 27.8801 15.6401C27.6764 15.7346 27.5178 15.905 27.4381 16.1149C27.3584 16.3249 27.3641 16.5576 27.4538 16.7634C27.4974 16.8626 27.5595 16.9525 27.6366 17.0286C27.7119 17.1016 27.8004 17.1598 27.8973 17.2C27.9982 17.2412 28.1066 17.2613 28.2156 17.2589C28.3128 17.2589 28.4091 17.2396 28.4987 17.2021C28.5794 17.1682 28.6527 17.1187 28.7142 17.0564C28.7747 16.9945 28.8235 16.9222 28.8585 16.843C28.8948 16.7609 28.9171 16.6732 28.9242 16.5836L28.3674 16.5931L28.3645 16.4213L29.1241 16.4084C29.1249 16.5427 29.1051 16.6762 29.0653 16.8045ZM29.6464 17.154C29.7238 17.2077 29.8165 17.2352 29.9107 17.2325C29.9659 17.232 30.0206 17.2216 30.0721 17.2017C30.1195 17.1832 30.1629 17.1557 30.1999 17.1206C30.236 17.0867 30.2641 17.0451 30.2819 16.9988C30.3015 16.9485 30.3108 16.8946 30.3091 16.8406C30.3087 16.7908 30.3012 16.7414 30.2867 16.6937C30.2722 16.6464 30.2486 16.6024 30.2173 16.564C30.1808 16.5192 30.1373 16.4805 30.0885 16.4494C30.0252 16.4095 29.9579 16.3766 29.8876 16.3511C29.7591 16.3086 29.6423 16.237 29.5462 16.1419C29.465 16.0521 29.4212 15.9348 29.4237 15.8138C29.4218 15.7537 29.4323 15.6938 29.4546 15.638C29.4757 15.5852 29.5073 15.5373 29.5475 15.4973C29.5899 15.4563 29.64 15.4241 29.6949 15.4025C29.7565 15.378 29.8221 15.3654 29.8883 15.3653C29.9722 15.3625 30.0554 15.3812 30.1301 15.4196C30.2031 15.4569 30.2646 15.5132 30.3082 15.5826L30.1749 15.683C30.1449 15.636 30.1032 15.5978 30.0538 15.572C30.0045 15.5461 29.9492 15.5337 29.8936 15.5358C29.8192 15.5343 29.7472 15.5617 29.6927 15.6123C29.667 15.6371 29.647 15.6671 29.634 15.7003C29.6209 15.7334 29.6152 15.769 29.617 15.8046C29.6166 15.8846 29.6461 15.9618 29.6996 16.0212C29.7794 16.0983 29.8754 16.1566 29.9807 16.1917C30.1326 16.2405 30.2687 16.3289 30.3749 16.448C30.4576 16.5578 30.5011 16.6923 30.4982 16.8298C30.4999 16.905 30.4879 16.9798 30.4628 17.0507C30.4382 17.1183 30.3994 17.18 30.349 17.2314C30.2963 17.2837 30.2333 17.3246 30.164 17.3514C30.0654 17.3894 29.9596 17.4052 29.8541 17.3978C29.7487 17.3904 29.6461 17.36 29.5537 17.3086C29.4455 17.2467 29.3597 17.1523 29.3083 17.0387L29.4584 16.9263C29.4988 17.0181 29.5639 17.0969 29.6464 17.154ZM32.8268 17.4167L32.6143 17.1532C32.5323 17.2142 32.4435 17.2655 32.3496 17.3061C32.2503 17.3479 32.1436 17.3696 32.0358 17.3699C31.8948 17.3723 31.758 17.3219 31.6523 17.2286C31.602 17.184 31.5613 17.1296 31.5327 17.0688C31.503 17.0068 31.4873 16.939 31.4868 16.8703C31.4854 16.809 31.4946 16.7479 31.5145 16.6898C31.5349 16.6323 31.564 16.5782 31.6009 16.5294C31.6405 16.477 31.6849 16.4284 31.7334 16.384C31.7863 16.3351 31.8423 16.2895 31.9011 16.2474C31.8313 16.1666 31.7695 16.0792 31.7166 15.9864C31.6789 15.9207 31.6576 15.8469 31.6544 15.7712C31.6528 15.7124 31.6627 15.6539 31.6838 15.5989C31.7038 15.5475 31.734 15.5007 31.7727 15.4613C31.8124 15.4215 31.8598 15.3901 31.9118 15.3689C31.9674 15.3463 32.0267 15.3344 32.0867 15.3338C32.1422 15.3327 32.1973 15.3427 32.249 15.3632C32.3537 15.4043 32.4379 15.4852 32.4829 15.5883C32.5078 15.6448 32.5208 15.7059 32.5213 15.7676C32.5228 15.8212 32.5132 15.8745 32.4929 15.9241C32.4729 15.973 32.4452 16.0185 32.4109 16.0587C32.3744 16.1024 32.3336 16.1422 32.2891 16.1777C32.2424 16.2156 32.1943 16.2517 32.1448 16.2859L32.6394 16.9039C32.6838 16.8637 32.7271 16.8222 32.7692 16.7796C32.8114 16.737 32.8517 16.6926 32.8902 16.6466L33.0024 16.7826C32.9629 16.8288 32.9224 16.8741 32.8809 16.9185C32.8397 16.9621 32.7964 17.0036 32.751 17.0428L32.9664 17.3115L32.8268 17.4167ZM31.6988 16.9982C31.7158 17.0392 31.7412 17.0762 31.7737 17.1067C31.8081 17.1383 31.8482 17.163 31.8918 17.1795C31.9435 17.1981 31.998 17.2067 32.0529 17.2049C32.1335 17.2034 32.2129 17.1847 32.2857 17.15C32.3643 17.1131 32.4386 17.0676 32.5072 17.0142L32.0045 16.38C31.9108 16.4445 31.8266 16.5216 31.7541 16.6092C31.6968 16.6814 31.6668 16.7715 31.6696 16.8637C31.6701 16.91 31.6803 16.9557 31.6988 16.9982ZM32.2706 15.5679C32.2481 15.5438 32.2207 15.5249 32.1902 15.5123C32.1597 15.4997 32.1269 15.4938 32.0939 15.495C32.0583 15.493 32.0226 15.4992 31.9897 15.5131C31.9568 15.527 31.9275 15.5483 31.9041 15.5753C31.8616 15.6285 31.8397 15.6953 31.8424 15.7634C31.8429 15.7941 31.8489 15.8244 31.8599 15.853C31.8713 15.8831 31.8866 15.9116 31.9046 15.9382C31.9238 15.9665 31.9457 15.9959 31.9699 16.0323C31.9937 16.0687 32.0191 16.1051 32.0461 16.1479C32.0855 16.1218 32.124 16.0945 32.1616 16.0659C32.1961 16.0394 32.228 16.0097 32.257 15.9772C32.284 15.9465 32.3061 15.9118 32.3226 15.8744C32.3392 15.8358 32.3469 15.7939 32.3456 15.7519C32.3453 15.6829 32.318 15.6169 32.2694 15.5679L32.2706 15.5679ZM34.2216 17.1259L35.0004 17.1127L35.0033 17.2839L34.0334 17.3004L34 15.3335L34.1911 15.3302L34.2216 17.1259ZM37.0227 16.6676C36.9459 16.8528 36.8167 17.0117 36.6509 17.1246C36.485 17.2373 36.2897 17.2992 36.0891 17.3026C35.8885 17.3061 35.6912 17.2508 35.5215 17.1437C35.3521 17.0365 35.2175 16.8822 35.1344 16.6997C35.0783 16.5735 35.0481 16.4373 35.0458 16.2991C35.0435 16.1611 35.0689 16.0239 35.1208 15.8959C35.1976 15.7106 35.3268 15.5518 35.4926 15.4389C35.6585 15.3261 35.8538 15.2642 36.0544 15.2608C36.2551 15.2574 36.4523 15.3126 36.622 15.4198C36.7915 15.527 36.926 15.6813 37.0091 15.8638C37.0653 15.99 37.0954 16.1262 37.0977 16.2643C37.1001 16.4024 37.0746 16.5396 37.0227 16.6676ZM35.3084 16.6295C35.3533 16.7294 35.4169 16.8198 35.4959 16.8957C35.573 16.9689 35.6632 17.0269 35.7618 17.0665C35.8649 17.1072 35.9751 17.1272 36.0859 17.1253C36.197 17.1234 36.3062 17.0997 36.4082 17.0555C36.5067 17.012 36.5959 16.9497 36.6708 16.8722C36.8268 16.7091 36.9122 16.4909 36.9084 16.2652C36.9045 16.0394 36.8118 15.8243 36.6503 15.6665C36.5727 15.592 36.4815 15.533 36.3816 15.4929C36.2785 15.4518 36.1683 15.4317 36.0574 15.4335C35.9464 15.4354 35.8369 15.4593 35.7353 15.5038C35.6367 15.5473 35.5474 15.6093 35.4724 15.6865C35.3567 15.8099 35.2796 15.9643 35.2504 16.1309C35.2212 16.2975 35.2413 16.469 35.3083 16.6243L35.3084 16.6295ZM37.3792 17.2774L37.1787 17.2808L37.981 15.232L38.026 15.2312L38.8964 17.2517L38.6957 17.2551L38.464 16.7021L37.5916 16.717L37.3792 17.2774ZM37.656 16.5447L38.3929 16.5322L38.009 15.6218L37.656 16.5447ZM39.2675 17.2115L39.0764 17.2147L39.0428 15.2333L39.101 15.213L40.4546 16.8033L40.4278 15.2261L40.6195 15.2228L40.6531 17.2038L40.5952 17.2246L39.2414 15.6366L39.2675 17.2115ZM41.258 16.9568C41.3355 17.0105 41.4281 17.038 41.5224 17.0353C41.5773 17.0349 41.6318 17.0244 41.6831 17.0045C41.7308 16.9861 41.7744 16.9585 41.8116 16.9235C41.8473 16.8891 41.8753 16.8476 41.8938 16.8017C41.9131 16.7513 41.9222 16.6975 41.9201 16.6435C41.9198 16.5937 41.9123 16.5443 41.8982 16.4966C41.8836 16.4493 41.8598 16.4052 41.8284 16.3669C41.7923 16.3219 41.749 16.2831 41.7002 16.2522C41.6367 16.2124 41.5691 16.1794 41.4986 16.154C41.3704 16.1115 41.2537 16.0399 41.1578 15.9447C41.0765 15.8551 41.0326 15.7376 41.0353 15.6166C41.0337 15.5566 41.0439 15.4968 41.0656 15.4408C41.087 15.3881 41.1188 15.3402 41.1592 15.3002C41.2015 15.259 41.2516 15.2268 41.3065 15.2053C41.3681 15.1809 41.4337 15.1683 41.5 15.1682C41.5836 15.1652 41.6667 15.184 41.741 15.2225C41.8142 15.2595 41.8758 15.3158 41.9192 15.3854L41.7842 15.4906C41.7545 15.4436 41.7129 15.4052 41.6637 15.3794C41.6144 15.3536 41.5592 15.3412 41.5036 15.3434C41.4292 15.3417 41.3571 15.3691 41.3026 15.4199C41.277 15.4447 41.257 15.4747 41.244 15.5079C41.231 15.541 41.2252 15.5766 41.227 15.6122C41.2266 15.6922 41.256 15.7694 41.3095 15.8288C41.3891 15.9062 41.4853 15.9646 41.5908 15.9993C41.7426 16.0479 41.8785 16.1364 41.9844 16.2556C42.0468 16.3414 42.0877 16.4409 42.1035 16.5458C42.1192 16.6507 42.1092 16.7579 42.0747 16.8582C42.0498 16.9258 42.0111 16.9874 41.9609 17.039C41.908 17.0911 41.845 17.132 41.7757 17.159C41.695 17.1908 41.609 17.2071 41.5223 17.2071C41.3971 17.2103 41.2734 17.1788 41.165 17.1162C41.0571 17.0541 40.9714 16.9597 40.92 16.8463L41.07 16.7339C41.1111 16.824 41.1761 16.9011 41.258 16.9568ZM43.1911 17.1449L43.1577 15.178L43.5707 15.171C43.6631 15.1678 43.7554 15.1809 43.8431 15.2096C43.9182 15.2341 43.9879 15.2725 44.0486 15.323C44.105 15.3717 44.1498 15.4324 44.1797 15.5007C44.2404 15.644 44.2431 15.8053 44.1873 15.9505C44.1598 16.0198 44.117 16.0821 44.0623 16.1326C44.0037 16.1855 43.9352 16.2264 43.8609 16.2529C43.7741 16.2848 43.6824 16.3012 43.5899 16.3013L43.368 16.3051L43.3822 17.1416L43.1911 17.1449ZM43.9161 16.0223C43.955 15.9845 43.9857 15.9391 44.0063 15.889C44.0269 15.8388 44.0371 15.785 44.0362 15.7308C44.0353 15.6765 44.0232 15.6231 44.0009 15.5737C43.9786 15.5242 43.9464 15.4799 43.9063 15.4434C43.8097 15.3699 43.6896 15.3339 43.5685 15.3422L43.3517 15.3459L43.3652 16.1386L43.5819 16.1349C43.7034 16.1391 43.822 16.0991 43.9161 16.0223ZM44.7034 16.948L45.4823 16.9348L45.4852 17.1059L44.5152 17.1224L44.4818 15.1555L44.6729 15.1523L44.7034 16.948ZM45.6017 15.7179C45.6784 15.5326 45.8079 15.374 45.9742 15.2619C46.1403 15.1496 46.3357 15.0887 46.5362 15.0867C46.6687 15.0835 46.8004 15.1054 46.9247 15.1514C47.0445 15.1963 47.1546 15.2637 47.2491 15.3499L47.1221 15.4817C47.0444 15.4102 46.9543 15.3535 46.8562 15.3145C46.7554 15.2745 46.6475 15.2553 46.5391 15.2579C46.4279 15.2592 46.3182 15.2831 46.2166 15.3283C46.0644 15.3961 45.9356 15.5071 45.8461 15.6476C45.7566 15.7881 45.7104 15.9518 45.7133 16.1183C45.7161 16.2848 45.7678 16.4468 45.8619 16.5842C45.9561 16.7216 46.0887 16.8283 46.2431 16.8909C46.3463 16.9321 46.4567 16.9521 46.5678 16.9497C46.6762 16.9486 46.7833 16.9257 46.8828 16.8823C46.9795 16.8402 47.0676 16.7807 47.1429 16.7067L47.2743 16.8336C47.1828 16.923 47.075 16.994 46.9568 17.043C46.8344 17.0936 46.7033 17.1203 46.5707 17.1214C46.3008 17.1274 46.0394 17.0269 45.843 16.8416C45.7473 16.7508 45.67 16.6424 45.6154 16.5223C45.5597 16.396 45.5298 16.2598 45.5273 16.1218C45.525 15.9837 45.5505 15.8466 45.6017 15.7185L45.6017 15.7179Z" fill="white" stroke="white" stroke-width="0.0603862" stroke-miterlimit="10"/>
<path d="M0.693787 1.59302L17.7207 1.30394L1.04422 19.3432L0.742843 1.59218" fill="white"/>
<path d="M17.1855 10.7555L12.0008 10.9317L17.0951 5.43378L17.1855 10.7555ZM17.2259 13.1377L17.3129 18.2608L4.92822 18.4711L9.77985 13.239L17.2255 13.1126" fill="white"/>
</g>
<defs>
<clipPath id="clip0_761_10239">
<rect width="47.3428" height="17.7535" fill="white" transform="translate(0.693787 1.59375) rotate(-0.972665)"/>
</clipPath>
</defs>
</svg>
