<svg width="20" height="20" viewBox="0 0 20 20" fill="none" xmlns="http://www.w3.org/2000/svg">
<path d="M4.49765 5.53984L3.17638 5.56227L2.06415 9.24715L2.77197 9.23513L3.07995 8.22294L4.70531 8.19534L5.06321 9.19623L5.77103 9.18422L4.49765 5.53984ZM3.25882 7.63775L3.84013 5.73457L4.50144 7.61665L3.25882 7.63775ZM6.73979 9.17301L6.67748 5.50283L6.02733 5.51387L6.08965 9.18405L6.73979 9.17301ZM8.12706 6.44323L8.11068 5.4785L7.46053 5.48954L7.47691 6.45427L7.08368 6.46095L7.09231 6.96953L7.15523 6.96846C7.15523 6.96846 7.48554 6.96285 7.49169 7.32463L7.51154 8.49384C7.51786 8.86611 7.8217 9.15465 8.18872 9.14841L8.63438 9.14085L8.62459 8.56411L8.36768 8.56847C8.25757 8.57034 8.16159 8.47756 8.15972 8.36746L8.14263 7.36078C8.13605 6.97279 7.31252 6.96579 7.1762 6.96811L8.59708 6.94398L8.58845 6.4354L8.12706 6.44323ZM4.17851 12.0734C4.17851 12.0734 3.47317 11.9228 3.45211 11.9179C3.2151 11.859 3.01391 11.747 3.00981 11.5058C3.00536 11.2437 3.32154 11.0233 3.72526 11.0164C4.21812 11.008 4.50116 11.3074 4.50624 11.6063L5.19309 11.5946C5.18223 10.955 4.67496 10.4234 3.71547 10.4397C2.90279 10.4535 2.31246 10.8988 2.32305 11.5227C2.334 12.1676 2.74822 12.47 3.34825 12.5962C3.34825 12.5962 4.05883 12.7467 4.07465 12.7517C4.34845 12.8152 4.57621 12.9477 4.58075 13.2151C4.58636 13.5454 4.18096 13.7621 3.7504 13.7327C3.16761 13.6954 2.94615 13.3163 2.94152 13.0437L2.25991 13.0552C2.27006 13.6529 2.77937 14.3051 3.77077 14.3145C4.51556 14.3176 5.27935 13.8955 5.2676 13.2035C5.25674 12.5638 4.81027 12.2147 4.17851 12.0734ZM6.94632 13.647C6.53212 13.654 6.30523 13.2645 6.29757 12.8136C6.28983 12.3575 6.55589 11.9648 6.91242 11.9588C7.19554 11.954 7.42456 12.1599 7.5081 12.4469L8.21068 12.435C8.08385 11.7606 7.53704 11.3713 6.89738 11.3821C6.17907 11.3943 5.56583 12.0341 5.61739 12.9091C5.66274 13.7265 6.25869 14.2303 6.96127 14.2184C7.61666 14.2073 8.09688 13.7638 8.21266 13.1692L7.48911 13.1815C7.43544 13.4184 7.22945 13.6422 6.94632 13.647ZM10.0309 11.3394C9.63299 11.3776 9.29922 11.7976 9.30635 12.5265C9.30545 12.1646 9.46354 11.8997 9.8358 11.8934C10.2448 11.8865 10.381 12.1883 10.3867 12.5239L10.4135 14.1021L11.0689 14.091L11.0384 12.2926C11.0277 11.6634 10.5022 11.2947 10.0309 11.3394ZM8.62096 10.4613L8.68327 14.1315L9.33341 14.1204L9.2711 10.4502L8.62096 10.4613ZM12.7864 11.2821C12.089 11.294 11.4582 11.8239 11.4735 12.7257C11.4888 13.6275 12.1266 14.1254 12.8345 14.1187C13.5475 14.1013 14.168 13.5768 14.1527 12.6802C14.1374 11.7784 13.4837 11.2703 12.7864 11.2821ZM12.8247 13.5419C12.4787 13.5478 12.1385 13.2809 12.1289 12.7146C12.1198 12.1798 12.445 11.8701 12.7962 11.8589C13.1528 11.8581 13.4884 12.1618 13.4973 12.6914C13.507 13.2576 13.176 13.536 12.8247 13.5419ZM15.8073 11.2309C15.11 11.2427 14.4791 11.7726 14.4944 12.6744C14.5098 13.5763 15.1476 14.0742 15.8555 14.0674C16.5684 14.05 17.1889 13.5255 17.1737 12.6289C17.1584 11.7271 16.5046 11.219 15.8073 11.2309ZM15.8457 13.4906C15.4996 13.4965 15.1594 13.2296 15.1498 12.6633C15.1408 12.1285 15.4659 11.8188 15.8171 11.8076C16.1737 11.8068 16.5093 12.1105 16.5183 12.6401C16.5279 13.2063 16.197 13.4847 15.8457 13.4906ZM18.3092 13.968L18.2469 10.2978L17.5967 10.3089L17.659 13.9791L18.3092 13.968ZM18.2186 8.17715L9.32338 8.32817L9.33689 9.12368L18.2321 8.97265L18.2186 8.17715Z" fill="white"/>
</svg>
