<svg width="53" height="16" viewBox="0 0 53 16" fill="none" xmlns="http://www.w3.org/2000/svg">
<g clip-path="url(#clip0_761_10255)">
<path d="M21.7268 7.31313C21.7507 7.79791 21.5767 8.21162 21.2047 8.55571C20.8327 8.89907 20.3906 9.07546 19.8776 9.08417C19.2187 9.09536 18.6239 8.8321 18.0924 8.29368L18.7271 7.49C19.069 7.86061 19.4157 8.05009 19.7672 8.05986C19.9447 8.06329 20.0979 8.02133 20.2267 7.93542C20.3929 7.82096 20.4794 7.64631 20.4883 7.41359C20.4993 7.1336 20.3274 6.91253 19.9733 6.75109L19.1461 6.37369C18.5568 6.10389 18.2503 5.62892 18.2266 4.94806C18.2095 4.48535 18.3803 4.09674 18.7385 3.78294C19.0756 3.48525 19.4802 3.33383 19.9524 3.32867C20.5276 3.32177 21.0629 3.53094 21.5581 3.95405L20.8899 4.68387C20.6787 4.50998 20.5482 4.40843 20.4976 4.37781C20.3436 4.28381 20.1747 4.24017 19.9916 4.24614C19.8085 4.25211 19.6599 4.31116 19.5466 4.42186C19.4332 4.53256 19.3786 4.68448 19.3818 4.87692C19.3892 5.14086 19.5421 5.33864 19.8399 5.47098L20.7231 5.85673C21.359 6.13504 21.6935 6.62027 21.7268 7.31313Z" fill="white"/>
<path d="M26.4061 5.24259L24.1976 10.298L23.0788 10.3169L23.8375 8.60163L22.2524 5.31311L23.455 5.29269L24.3944 7.34701L25.2543 5.26215L26.4061 5.24259Z" fill="white"/>
<path d="M29.4424 8.59538C29.1154 8.76195 28.8141 8.84793 28.5373 8.85263C28.015 8.8615 27.5626 8.68598 27.1808 8.32607C26.7983 7.96617 26.6077 7.53002 26.6083 7.01763C26.6089 6.50525 26.7889 6.06352 27.1476 5.69247C27.5062 5.32142 27.9395 5.13158 28.446 5.12298C28.7071 5.11855 29.0038 5.18507 29.3353 5.32257L29.3507 6.22684C29.2477 6.18851 29.144 6.15091 29.0411 6.11545C28.8785 6.06239 28.7364 6.03833 28.6155 6.04324C28.3387 6.0508 28.1206 6.14539 27.9605 6.32629C27.8004 6.5072 27.724 6.72676 27.7312 6.98354C27.7385 7.24104 27.8229 7.45357 27.9846 7.62114C28.1587 7.79781 28.382 7.88418 28.656 7.87953C28.9042 7.87531 29.161 7.78079 29.4255 7.59596L29.4424 8.59467L29.4424 8.59538Z" fill="white"/>
<path d="M34.0851 8.70341L33.0084 8.72169L33.0027 8.38617C32.6908 8.68701 32.3249 8.84565 31.9059 8.86206C31.421 8.88246 31.0044 8.70777 30.6568 8.33797C30.3151 7.97667 30.1352 7.5432 30.1173 7.03685C30.0993 6.5212 30.2519 6.06777 30.5744 5.67658C30.9097 5.27587 31.3242 5.07491 31.8186 5.07224C32.248 5.07139 32.6421 5.22643 33.0016 5.53734L32.9947 5.1317L34.0249 5.11421L34.0858 8.70412L34.0851 8.70341ZM33.0662 6.9417C33.059 6.68349 32.9629 6.46328 32.7802 6.28247C32.5968 6.10167 32.375 6.01813 32.114 6.03187C31.8437 6.04576 31.6272 6.1439 31.4635 6.32558C31.3006 6.50796 31.2178 6.72978 31.2157 6.99101C31.2136 7.24652 31.3082 7.46317 31.4994 7.64098C31.6907 7.81878 31.9104 7.90665 32.1594 7.90528C32.4113 7.90387 32.6272 7.80717 32.8071 7.61377C32.987 7.42036 33.0734 7.19634 33.0662 6.94099L33.0662 6.9417Z" fill="white"/>
<path d="M40.3366 8.59708L39.2599 8.61536L39.2251 6.56286C39.2175 6.11645 39.022 5.89721 38.6379 5.90731C38.4726 5.91012 38.3385 5.97537 38.2362 6.10305C38.1339 6.23074 38.0843 6.39044 38.0876 6.58289L38.1225 8.63538L37.0315 8.65391L36.9973 6.64004C36.9898 6.19864 36.8271 5.97598 36.51 5.97206C36.339 5.96853 36.1913 6.04045 36.0657 6.18713C35.9408 6.33381 35.8799 6.49585 35.8829 6.67256L35.9169 8.67283L34.8259 8.69135L34.7649 5.10145L35.8416 5.08317L35.8492 5.53101C36.0199 5.34492 36.1567 5.22094 36.258 5.16054C36.4024 5.07079 36.582 5.02623 36.7967 5.02545C37.1201 5.02282 37.3678 5.073 37.5406 5.17598C37.6288 5.2303 37.7649 5.36467 37.9482 5.5791C38.2021 5.14901 38.5778 4.93868 39.0753 4.94884C39.4612 4.95803 39.7633 5.09387 39.9825 5.35779C40.1856 5.60338 40.2903 5.91217 40.2966 6.2849L40.3359 8.59709L40.3366 8.59708Z" fill="white"/>
<path d="M44.9962 6.7545C45.0026 7.30469 44.8123 7.76735 44.425 8.14246C44.0378 8.51757 43.5652 8.70951 43.0058 8.71901C42.4463 8.72851 41.9902 8.54232 41.5901 8.15982C41.19 7.77804 40.9876 7.31847 40.9813 6.78044C40.975 6.23955 41.1726 5.77963 41.5733 5.39928C41.9648 5.02266 42.4417 4.82994 43.0047 4.82038C43.5677 4.81082 44.0031 4.99664 44.3967 5.3771C44.7903 5.75757 44.9899 6.21646 44.9962 6.7545ZM43.9049 6.75657C43.8846 6.48713 43.7835 6.26486 43.6002 6.08978C43.4176 5.91469 43.1987 5.83397 42.9448 5.84758C42.7003 5.86103 42.4938 5.96043 42.3266 6.14647C42.1595 6.3325 42.0808 6.54924 42.0915 6.79666C42.1021 7.04479 42.1959 7.25574 42.3742 7.42875C42.5524 7.60248 42.7635 7.68763 43.0089 7.68347C43.2543 7.6793 43.476 7.58465 43.6575 7.40052C43.839 7.21568 43.9212 7.00174 43.9049 6.75657Z" fill="white"/>
<path d="M48.0768 5.81679C47.9763 5.79989 47.8703 5.79238 47.758 5.79429C47.5147 5.79842 47.3296 5.85166 47.2039 5.95326C46.9822 6.13092 46.8742 6.38465 46.8798 6.71445L46.9099 8.48579L45.8189 8.50432L45.7579 4.91441L46.8489 4.89589L46.8572 5.38523C47.0124 5.16791 47.1879 5.01107 47.3831 4.91473C47.5939 4.81168 47.8192 4.76277 48.0597 4.76799L48.0775 5.81678L48.0768 5.81679Z" fill="white"/>
<path d="M52.3939 6.83448L49.8156 6.87825C49.85 7.09235 49.9423 7.26539 50.092 7.3981C50.2417 7.53081 50.4281 7.59348 50.6513 7.58683C50.9803 7.57838 51.2481 7.38062 51.4556 6.99496L52.2505 7.49456C51.8233 8.16733 51.2836 8.50138 50.6309 8.49672C50.0806 8.49389 49.6235 8.2977 49.2591 7.90887C48.9042 7.52919 48.7275 7.06918 48.7276 6.52818C48.7283 6.02152 48.8779 5.59891 49.177 5.26179C49.4971 4.89569 49.929 4.70802 50.4734 4.69878C51.0608 4.68881 51.5253 4.86626 51.8671 5.22971C52.2279 5.61217 52.4037 6.14732 52.3932 6.83449L52.3939 6.83448ZM51.2396 6.15921C51.2041 5.71184 50.9606 5.48913 50.5098 5.49106C50.3015 5.49173 50.1304 5.56763 49.9962 5.71875C49.874 5.85465 49.8101 6.00959 49.8038 6.18359L51.2396 6.15921Z" fill="white"/>
<path d="M35.0113 11.7939C34.9339 11.7952 34.8741 11.7346 34.8727 11.6572C34.8714 11.5798 34.9292 11.5201 35.0066 11.5187C35.084 11.5174 35.1416 11.5752 35.1429 11.6526C35.1442 11.73 35.0865 11.7926 35.0113 11.7939Z" fill="white"/>
<path d="M35.4967 11.7857C35.4193 11.787 35.3595 11.7264 35.3582 11.649C35.3569 11.5716 35.4147 11.5118 35.4921 11.5105C35.5694 11.5092 35.6271 11.567 35.6284 11.6444C35.6297 11.7218 35.572 11.7844 35.4967 11.7857Z" fill="white"/>
<path d="M35.9835 11.7774C35.9061 11.7788 35.8463 11.7181 35.845 11.6407C35.8436 11.5633 35.9014 11.5036 35.9788 11.5023C36.0562 11.501 36.1138 11.5588 36.1151 11.6361C36.1164 11.7135 36.0587 11.7762 35.9835 11.7774Z" fill="white"/>
<path d="M36.4056 9.91327L36.603 9.90992L37.3434 11.4946L38.0295 9.8857L38.2298 9.8823L38.2611 11.7245L38.0744 11.7276L38.0494 10.256L37.4177 11.7388L37.2817 11.7411L36.6001 10.2864L36.625 11.7522L36.4383 11.7554L36.407 9.91324L36.4056 9.91327Z" fill="white"/>
<path d="M39.3238 11.727C38.9124 11.734 38.5956 11.451 38.5878 10.9889C38.5799 10.5267 38.8955 10.233 39.304 10.226C39.7125 10.2191 40.0379 10.4991 40.0458 10.9641C40.0537 11.4291 39.7351 11.7201 39.3245 11.727L39.3238 11.727ZM39.321 11.5639C39.5964 11.5593 39.8601 11.368 39.8533 10.9674C39.8465 10.5668 39.5815 10.3845 39.3039 10.3892C39.0263 10.3939 38.7705 10.585 38.7773 10.9856C38.7841 11.3863 39.0434 11.5686 39.321 11.5639Z" fill="white"/>
<path d="M40.5858 11.6853L40.3991 11.6884L40.3743 10.2304L40.561 10.2273L40.5654 10.4863C40.6425 10.306 40.8088 10.1966 41.0599 10.1923L41.0632 10.3869L41.0124 10.3878C40.7692 10.3919 40.5657 10.5049 40.5719 10.8704L40.5858 11.6846L40.5858 11.6853Z" fill="white"/>
<path d="M41.9956 11.6816C41.5814 11.6887 41.2753 11.4055 41.2674 10.9433C41.2596 10.4812 41.5509 10.1878 41.9701 10.1807C42.3893 10.1736 42.6642 10.4738 42.6705 10.8444C42.6715 10.903 42.6721 10.9402 42.668 10.9911L41.4582 11.0117C41.4798 11.3533 41.721 11.5282 41.9929 11.5235C42.2411 11.5193 42.407 11.3856 42.4574 11.1901L42.6549 11.1867C42.593 11.4625 42.3612 11.6754 41.9956 11.6816ZM41.4557 10.86L42.4808 10.8426C42.483 10.5033 42.2347 10.3365 41.965 10.3411C41.6952 10.3457 41.4714 10.5205 41.4557 10.86Z" fill="white"/>
<path d="M43.7839 10.3303L43.5808 10.3337L43.5781 10.1763L43.7813 10.1729L43.7795 10.0713C43.7742 9.75868 43.9183 9.60667 44.2868 9.60042L44.2895 9.76067C44.0413 9.76488 43.9627 9.8571 43.9663 10.0681L43.968 10.1697L44.3071 10.164L44.3098 10.3214L43.9707 10.3271L43.9927 11.6277L43.806 11.6309L43.7839 10.3303Z" fill="white"/>
<path d="M45.2652 11.6262C44.8538 11.6331 44.537 11.3501 44.5292 10.888C44.5213 10.4258 44.8369 10.1321 45.2454 10.1251C45.6539 10.1182 45.9793 10.3982 45.9872 10.8632C45.9951 11.3282 45.6765 11.6192 45.2659 11.6261L45.2652 11.6262ZM45.2624 11.463C45.5378 11.4584 45.8015 11.2671 45.7947 10.8665C45.7879 10.4659 45.5229 10.2836 45.2453 10.2883C44.9677 10.293 44.7119 10.4841 44.7187 10.8848C44.7255 11.2854 44.9848 11.4678 45.2624 11.463Z" fill="white"/>
<path d="M46.5272 11.5844L46.3405 11.5876L46.3157 10.1296L46.5024 10.1264L46.5068 10.3854C46.5839 10.2052 46.7502 10.0957 47.0013 10.0914L47.0046 10.286L46.9538 10.2869C46.7106 10.291 46.5071 10.404 46.5133 10.7695L46.5272 11.5837L46.5272 11.5844Z" fill="white"/>
<path d="M49.0235 10.0829L49.2159 10.0796L48.3874 12.2384L48.1928 12.2417L48.4643 11.5429L47.8416 10.103L48.0469 10.0995L48.5645 11.3351L49.0242 10.0829L49.0235 10.0829Z" fill="white"/>
<path d="M50.1326 11.5435C49.7213 11.5505 49.4045 11.2675 49.3966 10.8053C49.3888 10.3432 49.7044 10.0494 50.1129 10.0425C50.5214 10.0356 50.8467 10.3156 50.8546 10.7806C50.8625 11.2456 50.544 11.5365 50.1334 11.5435L50.1326 11.5435ZM50.1299 11.3804C50.4053 11.3757 50.669 11.1845 50.6622 10.7838C50.6554 10.3832 50.3904 10.2009 50.1128 10.2057C49.8352 10.2104 49.5794 10.4015 49.5862 10.8021C49.593 11.2027 49.8523 11.3851 50.1299 11.3804Z" fill="white"/>
<path d="M52.4713 11.4828L52.2846 11.4859L52.2803 11.2298C52.1954 11.4159 52.0046 11.515 51.7885 11.5187C51.4573 11.5243 51.192 11.3256 51.1848 10.8985L51.1703 10.0464L51.3549 10.0433L51.369 10.8739C51.3745 11.1973 51.5532 11.3595 51.8208 11.355C52.0884 11.3504 52.2801 11.1762 52.274 10.8213L52.2606 10.0287L52.4473 10.0255L52.4721 11.4835L52.4713 11.4828Z" fill="white"/>
<path d="M9.55005 6.74991L4.14445 6.84169C3.42118 6.85397 2.82458 6.27729 2.8123 5.55402L2.79978 4.81644C2.7875 4.09316 3.36417 3.49657 4.08745 3.48429L8.18314 3.41476C8.90642 3.40248 9.50301 3.97915 9.51529 4.70242L9.55005 6.74991Z" fill="white"/>
<path d="M10.5744 12.3292L6.47874 12.3987C5.75546 12.411 5.15887 11.8343 5.14659 11.111L5.11183 9.06354L10.5174 8.97176C11.2407 8.95948 11.8373 9.53616 11.8496 10.2594L11.8621 10.997C11.8744 11.7203 11.2977 12.3169 10.5744 12.3292Z" fill="white"/>
<path d="M11.6874 0.730199L2.76055 0.881757C1.29897 0.906571 0.130157 2.11576 0.154971 3.57733L0.306529 12.5042C0.310137 12.7166 0.485476 12.8861 0.697952 12.8825C0.910427 12.8789 1.07991 12.7036 1.07631 12.4911L0.928682 3.79606C0.908909 2.63138 1.84073 1.66737 3.00541 1.6476L11.7004 1.49997C11.9129 1.49637 12.0824 1.32103 12.0788 1.10855C12.0752 0.896077 11.8998 0.726591 11.6874 0.730199Z" fill="white"/>
<path d="M13.9634 2.93021C13.7509 2.93382 13.5814 3.10916 13.585 3.32163L13.7326 12.016C13.7524 13.1806 12.8206 14.1446 11.6559 14.1644L2.96087 14.312C2.7484 14.3156 2.57891 14.491 2.58252 14.7035C2.58613 14.9159 2.76147 15.0854 2.97394 15.0818L11.9008 14.9303C13.3623 14.9054 14.5312 13.6962 14.5063 12.2347L14.3548 3.30856C14.3512 3.09609 14.1758 2.9266 13.9634 2.93021Z" fill="white"/>
</g>
<defs>
<clipPath id="clip0_761_10255">
<rect width="52.1777" height="14.2028" fill="white" transform="translate(0.108444 0.920959) rotate(-0.972665)"/>
</clipPath>
</defs>
</svg>
