<svg width="41" height="16" viewBox="0 0 41 16" fill="none" xmlns="http://www.w3.org/2000/svg">
<g clip-path="url(#clip0_761_10286)">
<path fill-rule="evenodd" clip-rule="evenodd" d="M8.00742 14.8345L10.1119 8.68188C10.535 7.58724 11.2479 7.54116 11.3159 7.54C11.7575 7.5325 12.399 7.28373 13.235 6.48793L13.402 6.31518L13.4688 6.24608C14.6072 5.24125 15.7565 4.8819 16.6058 4.86748C17.9647 4.84441 18.7208 5.34132 18.8769 6.52808C19.8425 5.35626 21.2601 4.78846 22.4492 4.76828C24.7933 4.72848 24.9229 6.35746 24.1779 8.51104L22.0723 14.5958L19.5923 14.6379L21.5677 8.89518C21.8579 7.97271 22.3122 6.70763 20.8853 6.73186C19.2206 6.76012 18.3368 8.74614 17.9165 10.0106L16.2969 14.6938L13.7829 14.7365L15.7923 8.99324C16.0825 8.07077 16.5368 6.80569 15.0759 6.83049C13.4452 6.85817 12.5614 8.84419 12.1071 10.1093L10.4875 14.7924L8.00742 14.8345ZM22.9216 14.5813L26.2582 4.94149L28.7383 4.89938L25.4017 14.5392L22.9216 14.5813Z" fill="white"/>
<path d="M10.1194 5.14749L10.8017 5.30582L10.9042 5.33806L11.6211 5.52979C10.2893 7.1496 8.21116 6.84505 8.21116 6.84505L7.87143 6.85082C7.19196 6.86235 6.27872 7.11574 5.91886 7.93744C5.26535 9.47777 10.0394 8.44519 8.53491 11.903C7.55378 14.1626 5.19066 15.0862 3.15227 15.1208C2.20102 15.137 1.31483 14.9821 0.495437 14.7581L1.2192 13.3526L3.69924 13.3105C4.34473 13.2995 5.46181 13.0426 5.85334 12.0845C6.67094 10.2015 1.80072 11.5756 3.30466 8.08377C4.18675 5.99584 6.37943 5.04107 8.34988 5.00762C9.09729 4.99493 9.64201 5.05364 10.1194 5.14749Z" fill="white"/>
<path fill-rule="evenodd" clip-rule="evenodd" d="M33.6238 0.432289L29.4455 12.5332C28.7275 14.2785 26.7939 14.4813 26.4208 14.5216L26.2849 14.5239L31.1098 0.474971L33.6238 0.432289ZM33.7294 8.65438L37.9761 8.58228C38.3296 7.38687 38.1079 6.33716 36.715 6.36081C35.3221 6.38446 34.2851 7.35359 33.7294 8.65438ZM35.0228 12.7783L38.2163 12.7241L37.8265 13.7842C36.748 14.3123 35.631 14.5691 34.272 14.5922C31.1125 14.6458 29.9269 12.8649 30.9943 9.68632C31.9668 6.91719 34.2378 4.56779 37.1934 4.51761C40.7606 4.45704 40.9041 6.90138 39.7721 10.2849L33.1473 10.3974C32.6977 11.9343 33.4941 12.8043 35.0228 12.7783Z" fill="white"/>
<path fill-rule="evenodd" clip-rule="evenodd" d="M26.4835 4.22425L27.0674 2.58316C27.1641 2.27567 27.4624 1.82883 28.7533 1.80691L29.8065 1.78903L29.742 1.99402C28.9296 4.18272 26.6194 4.22195 26.6194 4.22195L26.4835 4.22425Z" fill="white"/>
</g>
<defs>
<clipPath id="clip0_761_10286">
<rect width="40.0602" height="14.2028" fill="white" transform="translate(0.26137 0.998169) rotate(-0.972665)"/>
</clipPath>
</defs>
</svg>
