<svg width="48" height="20" viewBox="0 0 48 20" fill="none" xmlns="http://www.w3.org/2000/svg">
<g clip-path="url(#clip0_761_10292)">
<path d="M20.2883 13.6756L19.2365 13.6882L23.5483 2.5828L23.7919 2.57867L28.3989 13.5379L27.4231 13.5545L26.1677 10.5571L21.4424 10.6374L20.2883 13.6756ZM21.7913 9.70176L25.7849 9.63396L23.7046 4.69953L21.7913 9.70176ZM30.6847 12.1195C31.105 12.4102 31.607 12.5593 32.1179 12.5451C32.4168 12.5428 32.713 12.4861 32.9917 12.3778C33.2493 12.2779 33.485 12.1288 33.6857 11.9388C33.8806 11.7526 34.0329 11.5263 34.1319 11.2756C34.2371 11.0028 34.2867 10.7117 34.2777 10.4194C34.275 10.1491 34.2344 9.88054 34.157 9.62154C34.0771 9.36526 33.949 9.12664 33.7794 8.91856C33.5809 8.67893 33.3458 8.47212 33.0829 8.30575C32.7392 8.08987 32.3729 7.91211 31.9907 7.7756C31.1826 7.47379 30.5665 7.09467 30.1421 6.63832C29.7178 6.18196 29.4993 5.58848 29.4865 4.85789C29.4785 4.53726 29.5353 4.21831 29.6535 3.92014C29.7676 3.6344 29.9398 3.37541 30.159 3.15949C30.3888 2.93617 30.6606 2.76057 30.9587 2.64283C31.2927 2.51164 31.6482 2.44358 32.007 2.44212C32.4616 2.42886 32.912 2.5314 33.316 2.74011C33.7063 2.94389 34.0345 3.24894 34.2662 3.62326L33.5462 4.16666C33.171 3.62374 32.6634 3.35792 32.0228 3.36919C31.576 3.37677 31.2126 3.515 30.9324 3.78389C30.6519 4.05276 30.5156 4.40059 30.5229 4.82743C30.5218 5.26066 30.6814 5.6789 30.9707 6.00137C31.261 6.32637 31.7692 6.62938 32.4951 6.9104C33.4774 7.28016 34.1894 7.74313 34.631 8.29933C35.0726 8.8555 35.2993 9.54626 35.3112 10.3715C35.3215 10.78 35.2559 11.1869 35.1178 11.5715C34.9876 11.9375 34.7811 12.2716 34.512 12.5518C34.2273 12.8403 33.8859 13.0668 33.5093 13.2168C33.0708 13.3877 32.6042 13.4749 32.1336 13.4739C31.4549 13.4913 30.7845 13.3207 30.1966 12.9809C29.6107 12.645 29.1458 12.1326 28.8684 11.5169L29.6815 10.9088C29.9006 11.3955 30.2472 11.8139 30.6847 12.1195ZM47.2592 9.88117C46.8423 10.8861 46.1409 11.7474 45.2412 12.3592C44.3414 12.971 43.2824 13.3068 42.1944 13.3253C41.1064 13.3438 40.0367 13.0441 39.1166 12.4632C38.1966 11.8823 37.4664 11.0453 37.0156 10.0551C36.7057 9.37278 36.5424 8.63303 36.5363 7.88366C36.517 7.13433 36.655 6.38928 36.9416 5.69664C37.3587 4.6919 38.0602 3.83085 38.9599 3.21922C39.8597 2.60753 40.9186 2.27186 42.0064 2.25342C43.0944 2.23495 44.164 2.53447 45.084 3.11525C46.0039 3.69599 46.7342 4.53273 47.1853 5.52273C47.4955 6.20514 47.6588 6.94514 47.6645 7.69473C47.6842 8.44389 47.5461 9.18882 47.2592 9.88117ZM37.9628 9.67322C38.4372 10.7593 39.32 11.6152 40.4202 12.0559C40.9795 12.2779 41.5773 12.3869 42.1789 12.3766C42.7806 12.3664 43.3745 12.2372 43.9257 11.9964C44.4601 11.7604 44.9438 11.4234 45.3502 11.004C45.7706 10.5668 46.1002 10.0505 46.3197 9.48508C46.5391 8.91963 46.6441 8.31629 46.6287 7.70999C46.6235 7.10351 46.4981 6.50409 46.2596 5.94641C46.021 5.38875 45.6742 4.88397 45.2391 4.46129C44.8188 4.05588 44.3239 3.73569 43.7818 3.51839C43.2225 3.29642 42.6247 3.18742 42.0231 3.19765C41.4214 3.20787 40.8275 3.33711 40.2763 3.5779C39.7419 3.81358 39.2582 4.15037 38.8518 4.56974C38.4315 5.00697 38.1021 5.5233 37.8829 6.08878C37.6635 6.65418 37.5585 7.25746 37.5739 7.86372C37.5787 8.48627 37.7108 9.10126 37.9621 9.67088L37.9628 9.67322ZM19.9026 17.2244C19.9801 17.2781 20.0727 17.3056 20.167 17.3029C20.2222 17.3025 20.2768 17.292 20.3283 17.2721C20.3758 17.2537 20.4192 17.2261 20.4561 17.1911C20.4919 17.1568 20.5199 17.1153 20.5382 17.0693C20.5578 17.0189 20.567 16.9651 20.5653 16.911C20.5647 16.8613 20.5571 16.8119 20.5429 16.7642C20.5284 16.7169 20.5049 16.6728 20.4735 16.6345C20.437 16.5896 20.3935 16.5509 20.3448 16.5198C20.2813 16.48 20.2137 16.447 20.1432 16.4215C20.0162 16.3791 19.9007 16.3081 19.8054 16.214C19.7242 16.1243 19.6804 16.0069 19.6829 15.8859C19.681 15.8258 19.6915 15.766 19.7138 15.7101C19.7348 15.6574 19.7665 15.6095 19.8067 15.5695C19.8491 15.5285 19.8992 15.4963 19.9541 15.4746C20.0157 15.4502 20.0813 15.4376 20.1475 15.4374C20.2313 15.4345 20.3143 15.4533 20.3887 15.4918C20.4619 15.5287 20.5235 15.5851 20.5668 15.6547L20.4335 15.7552C20.4037 15.7082 20.3621 15.6698 20.3128 15.644C20.2635 15.6182 20.2083 15.6058 20.1528 15.608C20.0784 15.6064 20.0064 15.6338 19.9519 15.6845C19.9262 15.7092 19.9062 15.7392 19.8932 15.7724C19.8801 15.8056 19.8743 15.8412 19.8762 15.8768C19.8758 15.9567 19.9053 16.034 19.9588 16.0934C20.0385 16.1706 20.1346 16.2289 20.2399 16.2639C20.3917 16.3125 20.5277 16.401 20.6335 16.5202C20.696 16.6059 20.7368 16.7055 20.7525 16.8104C20.7683 16.9153 20.7584 17.0225 20.7238 17.1228C20.6994 17.1906 20.6605 17.2523 20.61 17.3036C20.5572 17.3558 20.4942 17.3967 20.425 17.4236C20.3262 17.4615 20.2203 17.4774 20.1148 17.47C20.0092 17.4626 19.9066 17.4321 19.8141 17.3808C19.7062 17.3187 19.6206 17.2243 19.5693 17.1109L19.7193 16.9985C19.7587 17.0891 19.8221 17.1672 19.9026 17.2244ZM21.0609 17.4595L20.8599 17.4629L21.6621 15.4141L21.7071 15.4133L22.5777 17.4337L22.3768 17.4371L22.1453 16.8842L21.2735 16.899L21.0609 17.4595ZM21.3378 16.7267L22.0746 16.7142L21.6909 15.8039L21.3378 16.7267ZM22.3314 15.4529L22.5105 15.3996L23.1963 17.0323L23.824 15.3773L24.0048 15.4245L23.2234 17.4245L23.1784 17.4253L22.3314 15.4529ZM24.4644 17.3678L24.2728 17.3711L24.2394 15.4042L24.431 15.4009L24.4644 17.3678ZM25.0849 17.3573L24.8933 17.3605L24.8596 15.3791L24.9177 15.3588L26.2715 16.9491L26.2447 15.3719L26.4358 15.3686L26.4694 17.3496L26.4113 17.3704L25.0582 15.7806L25.0849 17.3573ZM28.6393 16.7167C28.6011 16.8347 28.5409 16.9444 28.4618 17.0399C28.3842 17.1326 28.2876 17.2075 28.1786 17.2598C28.0586 17.3162 27.9275 17.3454 27.7949 17.3451C27.6625 17.348 27.5309 17.3248 27.4075 17.2767C27.2842 17.2287 27.1715 17.1568 27.0759 17.0652C26.9817 16.9738 26.9055 16.8655 26.8513 16.7459C26.7956 16.6196 26.7656 16.4834 26.7633 16.3454C26.7609 16.2073 26.7862 16.0702 26.8377 15.9421C26.9143 15.7569 27.0437 15.5983 27.2097 15.4861C27.3757 15.3739 27.5711 15.313 27.7715 15.3109C27.9327 15.3062 28.0926 15.341 28.2372 15.4123C28.3748 15.4787 28.4962 15.5746 28.5927 15.6931L28.4485 15.8055C28.3697 15.7056 28.27 15.6243 28.1563 15.5673C28.0386 15.5078 27.908 15.4784 27.7761 15.482C27.6651 15.4833 27.5555 15.5072 27.4541 15.5524C27.2504 15.6468 27.0917 15.8172 27.0121 16.0272C26.9324 16.2371 26.938 16.4699 27.0278 16.6757C27.0714 16.7748 27.1334 16.8648 27.2106 16.9408C27.2859 17.0138 27.3743 17.072 27.4712 17.1123C27.5722 17.1535 27.6806 17.1735 27.7896 17.1711C27.8868 17.1712 27.983 17.1518 28.0727 17.1143C28.1534 17.0805 28.2267 17.031 28.2882 16.9687C28.3486 16.9067 28.3975 16.8344 28.4325 16.7553C28.4688 16.6731 28.491 16.5854 28.4982 16.4959L27.9414 16.5053L27.9385 16.3336L28.698 16.3207C28.6989 16.4549 28.6791 16.5885 28.6393 16.7167ZM29.2203 17.0662C29.2978 17.1199 29.3904 17.1474 29.4847 17.1447C29.5399 17.1442 29.5945 17.1338 29.646 17.1139C29.6935 17.0954 29.7369 17.0679 29.7738 17.0328C29.81 16.9989 29.8381 16.9573 29.8559 16.9111C29.8755 16.8607 29.8847 16.8069 29.883 16.7529C29.8827 16.7031 29.8752 16.6536 29.8607 16.606C29.8462 16.5586 29.8226 16.5146 29.7913 16.4763C29.7547 16.4314 29.7113 16.3927 29.6625 16.3616C29.5992 16.3217 29.5318 16.2888 29.4615 16.2633C29.3331 16.2209 29.2163 16.1492 29.1202 16.0541C29.039 15.9644 28.9952 15.847 28.9977 15.726C28.9958 15.6659 29.0063 15.606 29.0286 15.5502C29.0496 15.4975 29.0812 15.4496 29.1215 15.4095C29.1639 15.3685 29.214 15.3363 29.2689 15.3147C29.3305 15.2903 29.3961 15.2776 29.4623 15.2775C29.5462 15.2747 29.6294 15.2934 29.704 15.3319C29.777 15.3691 29.8386 15.4254 29.8822 15.4948L29.7488 15.5952C29.7189 15.5483 29.6771 15.51 29.6278 15.4842C29.5785 15.4584 29.5232 15.4459 29.4676 15.4481C29.3932 15.4465 29.3211 15.4739 29.2666 15.5245C29.241 15.5493 29.221 15.5793 29.208 15.6125C29.1949 15.6457 29.1891 15.6813 29.191 15.7169C29.1906 15.7968 29.2201 15.874 29.2736 15.9334C29.3533 16.0106 29.4494 16.0688 29.5547 16.104C29.7066 16.1527 29.8427 16.2412 29.9488 16.3602C30.0316 16.4701 30.0751 16.6045 30.0722 16.742C30.0739 16.8172 30.0619 16.892 30.0368 16.9629C30.0121 17.0306 29.9733 17.0922 29.923 17.1437C29.8702 17.196 29.8073 17.2368 29.738 17.2637C29.6393 17.3016 29.5335 17.3174 29.4281 17.3101C29.3226 17.3027 29.2201 17.2722 29.1277 17.2209C29.0195 17.159 28.9337 17.0645 28.8823 16.951L29.0324 16.8386C29.0728 16.9304 29.1378 17.0091 29.2203 17.0662ZM32.4008 17.3289L32.1883 17.0655C32.1063 17.1265 32.0174 17.1778 31.9236 17.2184C31.8242 17.2601 31.7176 17.2818 31.6097 17.2821C31.4688 17.2845 31.332 17.2341 31.2263 17.1408C31.1759 17.0962 31.1352 17.0419 31.1067 16.981C31.077 16.919 31.0613 16.8512 31.0607 16.7825C31.0594 16.7212 31.0686 16.6601 31.0885 16.6021C31.1089 16.5445 31.138 16.4904 31.1748 16.4417C31.2145 16.3893 31.2589 16.3406 31.3073 16.2962C31.3603 16.2473 31.4163 16.2017 31.475 16.1596C31.4052 16.0788 31.3435 15.9914 31.2906 15.8986C31.2529 15.8329 31.2316 15.7591 31.2284 15.6835C31.2268 15.6247 31.2367 15.5661 31.2578 15.5112C31.2778 15.4597 31.308 15.4129 31.3466 15.3735C31.3864 15.3338 31.4337 15.3024 31.4858 15.2811C31.5413 15.2585 31.6007 15.2466 31.6606 15.246C31.7162 15.2449 31.7713 15.2549 31.823 15.2754C31.9277 15.3165 32.0119 15.3975 32.0569 15.5005C32.0818 15.5571 32.0948 15.6181 32.0953 15.6799C32.0968 15.7334 32.0871 15.7867 32.0668 15.8363C32.0468 15.8853 32.0192 15.9307 31.9849 15.971C31.9484 16.0146 31.9076 16.0544 31.8631 16.0899C31.8164 16.1278 31.7683 16.1639 31.7188 16.1981L32.2133 16.8161C32.2578 16.7759 32.3011 16.7344 32.3432 16.6918C32.3854 16.6492 32.4257 16.6049 32.4641 16.5589L32.5764 16.6948C32.5369 16.741 32.4964 16.7864 32.4549 16.8307C32.4137 16.8743 32.3703 16.9158 32.325 16.9551L32.5403 17.2237L32.4008 17.3289ZM31.2728 16.9104C31.2898 16.9515 31.3152 16.9885 31.3477 17.019C31.3821 17.0505 31.4222 17.0752 31.4658 17.0918C31.5174 17.1103 31.5719 17.1189 31.6269 17.1171C31.7075 17.1156 31.7869 17.0969 31.8597 17.0623C31.9383 17.0253 32.0126 16.9798 32.0811 16.9265L31.5784 16.2922C31.4848 16.3567 31.4005 16.4339 31.3281 16.5215C31.2707 16.5936 31.2408 16.6838 31.2436 16.7759C31.2441 16.8222 31.2542 16.8679 31.2728 16.9104ZM31.8446 15.4802C31.8221 15.4561 31.7946 15.4371 31.7642 15.4245C31.7337 15.4119 31.7009 15.406 31.6679 15.4072C31.6322 15.4052 31.5966 15.4114 31.5637 15.4253C31.5308 15.4393 31.5015 15.4606 31.4781 15.4876C31.4356 15.5408 31.4137 15.6075 31.4164 15.6756C31.4169 15.7063 31.4229 15.7367 31.4339 15.7653C31.4453 15.7953 31.4606 15.8238 31.4785 15.8504C31.4977 15.8787 31.5197 15.9082 31.5439 15.9446C31.5677 15.981 31.5931 16.0174 31.6201 16.0601C31.6595 16.034 31.698 16.0067 31.7356 15.9781C31.7701 15.9516 31.802 15.9219 31.831 15.8894C31.8579 15.8587 31.8801 15.824 31.8966 15.7867C31.9132 15.748 31.9209 15.7062 31.9196 15.6641C31.9193 15.5952 31.8919 15.5291 31.8434 15.4802L31.8446 15.4802ZM33.7955 17.0382L34.5744 17.0249L34.5773 17.1961L33.6073 17.2126L33.5739 15.2457L33.765 15.2425L33.7955 17.0382ZM36.5967 16.5798C36.5199 16.7651 36.3906 16.9239 36.2249 17.0368C36.0589 17.1496 35.8637 17.2115 35.6631 17.2149C35.4625 17.2183 35.2652 17.163 35.0955 17.056C34.926 16.9487 34.7915 16.7944 34.7084 16.6119C34.6522 16.4857 34.6221 16.3495 34.6198 16.2114C34.6174 16.0733 34.6429 15.9361 34.6948 15.8081C34.7716 15.6229 34.9008 15.4641 35.0666 15.3512C35.2325 15.2384 35.4278 15.1764 35.6284 15.173C35.829 15.1696 36.0263 15.2249 36.1959 15.332C36.3654 15.4392 36.5 15.5935 36.5831 15.776C36.6392 15.9022 36.6694 16.0384 36.6717 16.1765C36.674 16.3147 36.6486 16.4518 36.5967 16.5798ZM34.8824 16.5417C34.9273 16.6417 34.9909 16.732 35.0699 16.808C35.1469 16.8812 35.2372 16.9391 35.3358 16.9787C35.4389 17.0194 35.5491 17.0394 35.6599 17.0375C35.771 17.0356 35.8802 17.0119 35.9821 16.9678C36.0807 16.9242 36.1699 16.862 36.2448 16.7845C36.4008 16.6213 36.4862 16.4032 36.4824 16.1774C36.4785 15.9517 36.3858 15.7365 36.2243 15.5788C36.1467 15.5042 36.0555 15.4452 35.9556 15.4051C35.8525 15.3641 35.7423 15.3439 35.6313 15.3458C35.5204 15.3477 35.4109 15.3716 35.3093 15.4161C35.2107 15.4595 35.1214 15.5215 35.0463 15.5988C34.9307 15.7221 34.8535 15.8766 34.8244 16.0431C34.7952 16.2097 34.8153 16.3812 34.8823 16.5365L34.8824 16.5417ZM36.9531 17.1897L36.7527 17.1931L37.555 15.1442L37.5999 15.1435L38.4704 17.1639L38.2697 17.1673L38.038 16.6144L37.1656 16.6292L36.9531 17.1897ZM37.23 16.4569L37.9669 16.4444L37.583 15.5341L37.23 16.4569ZM38.8415 17.1237L38.6504 17.127L38.6167 15.1455L38.675 15.1252L40.0285 16.7156L40.0018 15.1383L40.1935 15.1351L40.2271 17.116L40.1692 17.1368L38.8153 15.5488L38.8415 17.1237ZM40.832 16.8691C40.9095 16.9227 41.0021 16.9502 41.0963 16.9476C41.1513 16.9471 41.2058 16.9367 41.2571 16.9168C41.3047 16.8983 41.3484 16.8708 41.3855 16.8357C41.4212 16.8014 41.4493 16.7599 41.4677 16.7139C41.4871 16.6635 41.4962 16.6097 41.494 16.5557C41.4938 16.506 41.4863 16.4566 41.4722 16.4088C41.4575 16.3615 41.4338 16.3174 41.4024 16.2791C41.3663 16.2341 41.323 16.1953 41.2742 16.1644C41.2107 16.1246 41.1431 16.0917 41.0726 16.0662C40.9443 16.0237 40.8277 15.9521 40.7318 15.8569C40.6504 15.7673 40.6066 15.6499 40.6093 15.5289C40.6077 15.4688 40.6179 15.409 40.6396 15.3531C40.6609 15.3003 40.6928 15.2525 40.7332 15.2124C40.7755 15.1713 40.8255 15.139 40.8805 15.1176C40.9421 15.0931 41.0077 15.0805 41.074 15.0804C41.1576 15.0775 41.2407 15.0962 41.315 15.1347C41.3882 15.1717 41.4498 15.2281 41.4932 15.2977L41.3582 15.4028C41.3285 15.3558 41.2869 15.3175 41.2376 15.2917C41.1884 15.2658 41.1332 15.2534 41.0776 15.2556C41.0032 15.2539 40.931 15.2814 40.8765 15.3321C40.851 15.3569 40.831 15.3869 40.818 15.4201C40.8049 15.4533 40.7991 15.4888 40.801 15.5244C40.8005 15.6044 40.83 15.6816 40.8835 15.741C40.9631 15.8185 41.0593 15.8768 41.1648 15.9115C41.3166 15.9601 41.4525 16.0486 41.5584 16.1678C41.6208 16.2536 41.6616 16.3532 41.6775 16.4581C41.6932 16.563 41.6832 16.6702 41.6487 16.7705C41.6238 16.838 41.585 16.8996 41.5349 16.9512C41.4819 17.0034 41.4189 17.0442 41.3497 17.0712C41.269 17.1031 41.183 17.1194 41.0962 17.1193C40.971 17.1225 40.8474 17.0911 40.739 17.0284C40.6311 16.9663 40.5454 16.8719 40.494 16.7585L40.644 16.6461C40.685 16.7362 40.7501 16.8134 40.832 16.8691ZM42.7651 17.0571L42.7317 15.0902L43.1447 15.0832C43.237 15.08 43.3294 15.0931 43.4171 15.1218C43.4922 15.1463 43.5619 15.1848 43.6226 15.2352C43.679 15.2839 43.7237 15.3447 43.7536 15.4129C43.8143 15.5562 43.8171 15.7175 43.7613 15.8628C43.7338 15.9321 43.691 15.9943 43.6363 16.0449C43.5777 16.0978 43.5092 16.1386 43.4348 16.1651C43.3481 16.1971 43.2563 16.2135 43.1639 16.2136L42.942 16.2173L42.9562 17.0539L42.7651 17.0571ZM43.4901 15.9346C43.529 15.8967 43.5596 15.8513 43.5802 15.8012C43.6009 15.751 43.6111 15.6972 43.6102 15.643C43.6092 15.5888 43.5972 15.5353 43.5749 15.4859C43.5526 15.4365 43.5204 15.3921 43.4803 15.3557C43.3837 15.2821 43.2636 15.2461 43.1425 15.2545L42.9257 15.2581L42.9392 16.0508L43.1559 16.0472C43.2774 16.0514 43.396 16.0114 43.4901 15.9346ZM44.2774 16.8602L45.0562 16.847L45.0591 17.0182L44.0892 17.0346L44.0558 15.0677L44.2469 15.0645L44.2774 16.8602ZM45.1757 15.6301C45.2524 15.4448 45.3819 15.2862 45.5481 15.1741C45.7142 15.0618 45.9097 15.0009 46.1102 14.999C46.2427 14.9957 46.3744 15.0177 46.4987 15.0637C46.6185 15.1086 46.7286 15.1759 46.8231 15.2621L46.696 15.394C46.6184 15.3224 46.5283 15.2657 46.4302 15.2267C46.3293 15.1867 46.2215 15.1675 46.1131 15.1701C46.0019 15.1714 45.8922 15.1954 45.7905 15.2405C45.6384 15.3083 45.5096 15.4194 45.4201 15.5598C45.3306 15.7003 45.2844 15.864 45.2873 16.0306C45.2901 16.1971 45.3418 16.359 45.4359 16.4964C45.5301 16.6338 45.6627 16.7405 45.8171 16.8031C45.9202 16.8444 46.0307 16.8644 46.1418 16.8619C46.2502 16.8608 46.3573 16.838 46.4568 16.7946C46.5535 16.7524 46.6416 16.6929 46.7168 16.619L46.8482 16.7459C46.7567 16.8352 46.649 16.9063 46.5308 16.9552C46.4083 17.0059 46.2772 17.0325 46.1447 17.0336C45.8748 17.0397 45.6133 16.9391 45.417 16.7538C45.3213 16.663 45.244 16.5546 45.1893 16.4346C45.1337 16.3082 45.1037 16.1721 45.1013 16.034C45.099 15.896 45.1244 15.7588 45.1757 15.6307L45.1757 15.6301Z" fill="white" stroke="white" stroke-width="0.0603862" stroke-miterlimit="10"/>
<path d="M0.267731 1.50525L17.2946 1.21617L0.618161 19.2554L0.316787 1.50442" fill="white"/>
<path d="M16.7595 10.6677L11.5748 10.844L16.6691 5.34601L16.7595 10.6677ZM16.7999 13.0499L16.8869 18.1731L4.5022 18.3833L9.35383 13.1512L16.7995 13.0248" fill="white"/>
</g>
<defs>
<clipPath id="clip0_761_10292">
<rect width="47.3428" height="17.7535" fill="white" transform="translate(0.268295 1.50598) rotate(-0.972665)"/>
</clipPath>
</defs>
</svg>
