<svg width="25" height="25" viewBox="0 0 25 25" fill="none" xmlns="http://www.w3.org/2000/svg">
<g clip-path="url(#clip0_761_10243)">
<path fill-rule="evenodd" clip-rule="evenodd" d="M19.2892 9.63646C19.2861 9.45623 19.1232 9.2988 18.9229 9.3022L18.4217 9.31071C18.2214 9.31411 18.0638 9.47698 18.0668 9.65721L18.1783 15.0279C18.1787 15.0727 18.188 15.117 18.2056 15.1582C18.2233 15.1994 18.249 15.2366 18.2812 15.2678C18.3134 15.2989 18.3515 15.3233 18.3933 15.3396C18.4351 15.3559 18.4797 15.3636 18.5245 15.3625L19.0257 15.354C19.226 15.3506 19.3834 15.1877 19.3804 15.0075L19.2892 9.63646Z" fill="white"/>
<path fill-rule="evenodd" clip-rule="evenodd" d="M19.9328 9.78514L19.9369 10.0249C19.9389 10.1449 20.0206 10.2238 20.1406 10.2218L23.6676 10.1619C23.7464 10.1585 23.821 10.125 23.8759 10.0682C23.9308 10.0115 23.9617 9.9358 23.9625 9.85684L23.9553 9.43616C23.9526 9.27578 23.8096 9.11801 23.6502 9.14126C23.6502 9.14126 20.2493 9.53948 20.1294 9.5616C20.0091 9.56364 19.9308 9.66515 19.9328 9.78537L19.9328 9.78514Z" fill="white"/>
<path fill-rule="evenodd" clip-rule="evenodd" d="M17.1609 15.3846C16.2792 15.3995 15.7268 14.7476 15.7142 14.0061L15.6778 11.8617L15.4173 11.8661C15.2971 11.8681 15.1746 11.75 15.1725 11.6297L15.1664 11.2688C15.1664 11.2054 15.1911 11.1444 15.2353 11.0989C15.2795 11.0534 15.3396 11.0269 15.403 11.025L15.6636 11.0205L15.6411 9.69734C15.6399 9.65251 15.6477 9.6079 15.664 9.5661C15.6803 9.52431 15.7047 9.48618 15.7359 9.45393C15.767 9.42168 15.8043 9.39597 15.8455 9.37829C15.8867 9.36061 15.9311 9.35132 15.9759 9.35096L16.4769 9.34245C16.6571 9.33939 16.8002 9.49716 16.8032 9.67761L16.8257 11.0008L17.6073 10.9875C17.6391 10.9858 17.6709 10.9906 17.7007 11.0017C17.7305 11.0128 17.7577 11.03 17.7806 11.0521C17.8035 11.0742 17.8216 11.1009 17.8336 11.1303C17.8457 11.1598 17.8516 11.1914 17.8509 11.2232L17.857 11.5835C17.8572 11.647 17.8327 11.7081 17.7885 11.7538C17.7444 11.7994 17.6841 11.8261 17.6206 11.828L16.84 11.8412L16.8736 13.8258C16.8801 14.2063 17.1256 14.4831 17.5462 14.4759L17.6265 14.4746C17.661 14.4729 17.6955 14.4783 17.7279 14.4904C17.7602 14.5026 17.7897 14.5212 17.8145 14.5452C17.8394 14.5692 17.859 14.5981 17.8722 14.63C17.8855 14.6619 17.892 14.6962 17.8915 14.7307L17.898 15.1114C17.8979 15.1802 17.8712 15.2462 17.8234 15.2957C17.7757 15.3451 17.7106 15.374 17.6419 15.3764L17.1609 15.3846Z" fill="white"/>
<path fill-rule="evenodd" clip-rule="evenodd" d="M11.1104 13.2219C11.091 12.0799 10.3904 10.9489 8.8473 10.9751C7.42442 10.9993 6.66187 12.1345 6.68161 13.2971C6.7027 14.5396 7.56301 15.6276 8.94574 15.6041C9.88771 15.5881 10.8014 15.0916 10.9677 14.267C10.9861 14.1665 10.9033 14.0075 10.7628 14.0099L10.0816 14.0215C10.0248 14.0218 9.96911 14.0373 9.92028 14.0663C9.87144 14.0953 9.8312 14.1367 9.80367 14.1864C9.60791 14.4708 9.32992 14.6161 8.92931 14.6229C8.32818 14.6331 7.91951 14.1784 7.87052 13.6587L10.7357 13.6101C10.9964 13.6057 11.1143 13.4633 11.1102 13.2226L11.1104 13.2219ZM7.87573 12.7967C7.90738 12.2951 8.34167 11.9068 8.86297 11.898C9.40411 11.8888 9.85133 12.2621 9.92006 12.762L7.87573 12.7967Z" fill="white"/>
<path fill-rule="evenodd" clip-rule="evenodd" d="M24.1367 13.0008C24.1173 11.8588 23.4167 10.7278 21.8733 10.754C20.4504 10.7782 19.6881 11.9134 19.7079 13.076C19.7289 14.3184 20.5895 15.4065 21.9722 15.383C22.914 15.367 23.8275 14.8705 23.994 14.0459C24.0126 13.9454 23.9293 13.7864 23.7892 13.7888L23.108 13.8003C23.0512 13.8007 22.9955 13.8161 22.9466 13.8451C22.8978 13.8741 22.8575 13.9156 22.8299 13.9652C22.6344 14.2497 22.3562 14.395 21.9353 14.4022C21.3542 14.412 20.9455 13.9573 20.8965 13.4376L23.7624 13.3889C24.0229 13.3845 24.1408 13.2422 24.1367 13.0015L24.1367 13.0008ZM20.9022 12.5756C20.9336 12.0739 21.3675 11.6859 21.889 11.6771C22.4301 11.6679 22.8776 12.0412 22.9262 12.5415L20.9022 12.5756Z" fill="white"/>
<path fill-rule="evenodd" clip-rule="evenodd" d="M14.6749 9.43334L5.4162 9.59053C5.3662 9.59138 5.31687 9.60207 5.27101 9.62199C5.22515 9.64191 5.18367 9.67067 5.14893 9.70663C5.1142 9.74259 5.08688 9.78505 5.06856 9.83156C5.05023 9.87808 5.04125 9.92776 5.04213 9.97775L5.1239 13.6248C5.1239 13.6248 3.0781 10.0513 2.97535 9.87249C2.91229 9.76907 2.8231 9.68408 2.71676 9.62607C2.61042 9.56807 2.49067 9.5391 2.36958 9.54207L1.60806 9.555C1.55795 9.5557 1.50847 9.56629 1.46247 9.58616C1.41646 9.60603 1.37483 9.63479 1.33997 9.67079C1.3051 9.7068 1.27769 9.74933 1.25931 9.79595C1.24093 9.84257 1.23194 9.89237 1.23285 9.94247L1.32335 15.2731C1.32709 15.4935 1.49135 15.6511 1.71057 15.6474L2.19148 15.6392C2.41186 15.6355 2.56952 15.4724 2.56578 15.252L2.48311 11.525C2.48311 11.525 4.54864 15.1182 4.6514 15.2568C4.75495 15.4554 4.95718 15.5923 5.23825 15.5875L5.93953 15.5756C6.15991 15.5718 6.31757 15.4087 6.31383 15.1884L6.23388 10.4792L14.6902 10.3356C14.7589 10.3332 14.8239 10.3042 14.8717 10.2548C14.9195 10.2054 14.9462 10.1394 14.9463 10.0707L14.9398 9.68967C14.9375 9.62097 14.9086 9.55583 14.8593 9.50801C14.8099 9.46019 14.7438 9.43341 14.6751 9.43333L14.6749 9.43334Z" fill="white"/>
<path fill-rule="evenodd" clip-rule="evenodd" d="M13.2114 11.7835C13.6122 11.7767 13.9153 11.9119 14.04 12.1701C14.0822 12.2899 14.1826 12.3083 14.323 12.3059L14.8842 12.2964C14.9645 12.295 15.0831 12.2127 15.0811 12.0927C15.0702 11.4514 14.2787 10.8829 13.1967 10.9013C12.0756 10.9201 11.3422 11.4743 11.3565 12.3173C11.3678 12.9786 11.8953 13.3508 12.5196 13.5209C12.8206 13.5761 13.3241 13.6875 13.5659 13.7638C13.8074 13.8199 14.0492 13.8959 14.0529 14.1163C14.059 14.477 13.7001 14.5839 13.2792 14.5911C12.8984 14.5975 12.5149 14.4425 12.41 14.1649C12.3473 14.0044 12.2265 13.9878 12.0663 13.9905L11.5047 14C11.4045 14.0017 11.286 14.1037 11.288 14.2239L11.2894 14.3042C11.2999 14.9254 12.1526 15.5524 13.3148 15.5327C14.1164 15.5191 15.2529 15.1591 15.2346 14.0766C15.2237 13.4353 14.7953 13.0019 14.0909 12.8336C13.8291 12.7778 13.185 12.6082 13.0444 12.5903C12.7822 12.5147 12.5407 12.4387 12.5373 12.2384C12.5315 11.8978 12.8298 11.7923 13.211 11.7858L13.2114 11.7835Z" fill="white"/>
</g>
<defs>
<clipPath id="clip0_761_10243">
<rect width="23.0796" height="23.0796" fill="white" transform="translate(0.967224 1.09039) rotate(-0.972665)"/>
</clipPath>
</defs>
</svg>
