<svg width="24" height="25" viewBox="0 0 24 25" fill="none" xmlns="http://www.w3.org/2000/svg">
<g clip-path="url(#clip0_761_10296)">
<path fill-rule="evenodd" clip-rule="evenodd" d="M18.8645 9.54869C18.8614 9.36846 18.6985 9.21103 18.4982 9.21443L17.997 9.22294C17.7967 9.22634 17.639 9.38921 17.6421 9.56944L17.7536 14.9401C17.754 14.9849 17.7632 15.0292 17.7809 15.0704C17.7986 15.1116 17.8243 15.1488 17.8565 15.18C17.8887 15.2111 17.9268 15.2356 17.9686 15.2518C18.0104 15.2681 18.0549 15.2759 18.0998 15.2747L18.601 15.2662C18.8013 15.2628 18.9587 15.0999 18.9556 14.9197L18.8645 9.54869Z" fill="white"/>
<path fill-rule="evenodd" clip-rule="evenodd" d="M19.5081 9.69737L19.5122 9.93714C19.5142 10.0571 19.5959 10.1361 19.7159 10.134L23.2428 10.0742C23.3217 10.0708 23.3963 10.0372 23.4512 9.98047C23.506 9.9237 23.537 9.84803 23.5377 9.76907L23.5306 9.34839C23.5279 9.18801 23.3849 9.03025 23.2255 9.05349C23.2255 9.05349 19.8245 9.45171 19.7047 9.47383C19.5844 9.47587 19.506 9.57738 19.5081 9.69761L19.5081 9.69737Z" fill="white"/>
<path fill-rule="evenodd" clip-rule="evenodd" d="M16.7362 15.2968C15.8545 15.3118 15.3021 14.6598 15.2895 13.9184L15.2531 11.7739L14.9926 11.7783C14.8724 11.7804 14.7499 11.6622 14.7478 11.542L14.7417 11.181C14.7417 11.1176 14.7664 11.0567 14.8106 11.0112C14.8547 10.9656 14.9149 10.9391 14.9783 10.9372L15.2388 10.9328L15.2164 9.60958C15.2152 9.56474 15.223 9.52013 15.2393 9.47833C15.2555 9.43654 15.28 9.39841 15.3111 9.36616C15.3423 9.33391 15.3796 9.3082 15.4208 9.29052C15.462 9.27284 15.5064 9.26355 15.5512 9.26319L16.0522 9.25468C16.2324 9.25162 16.3754 9.40939 16.3785 9.58985L16.401 10.913L17.1826 10.8998C17.2143 10.898 17.2462 10.9028 17.276 10.9139C17.3058 10.925 17.333 10.9422 17.3559 10.9643C17.3788 10.9865 17.3968 11.0131 17.4089 11.0426C17.421 11.072 17.4269 11.1036 17.4262 11.1355L17.4323 11.4957C17.4325 11.5592 17.4079 11.6203 17.3638 11.666C17.3196 11.7117 17.2594 11.7383 17.1959 11.7402L16.4152 11.7535L16.4489 13.738C16.4554 14.1186 16.7008 14.3953 17.1215 14.3882L17.2018 14.3868C17.2363 14.3851 17.2708 14.3905 17.3031 14.4026C17.3355 14.4148 17.365 14.4334 17.3898 14.4575C17.4146 14.4815 17.4343 14.5103 17.4475 14.5422C17.4608 14.5741 17.4673 14.6084 17.4668 14.6429L17.4732 15.0237C17.4732 15.0924 17.4465 15.1585 17.3987 15.2079C17.351 15.2573 17.2858 15.2863 17.2171 15.2886L16.7362 15.2968Z" fill="white"/>
<path fill-rule="evenodd" clip-rule="evenodd" d="M10.6857 13.1342C10.6663 11.9921 9.9657 10.8612 8.42259 10.8874C6.9997 10.9115 6.23716 12.0468 6.2569 13.2094C6.27799 14.4518 7.1383 15.5398 8.52103 15.5164C9.463 15.5004 10.3767 15.0038 10.543 14.1792C10.5614 14.0788 10.4786 13.9197 10.3381 13.9221L9.65684 13.9337C9.60006 13.9341 9.5444 13.9495 9.49557 13.9785C9.44673 14.0075 9.40649 14.0489 9.37896 14.0986C9.1832 14.3831 8.9052 14.5284 8.5046 14.5352C7.90346 14.5454 7.49479 14.0907 7.4458 13.571L10.311 13.5223C10.5717 13.5179 10.6896 13.3755 10.6855 13.1349L10.6857 13.1342ZM7.45102 12.709C7.48267 12.2073 7.91696 11.819 8.43825 11.8102C8.97939 11.801 9.42661 12.1743 9.49535 12.6743L7.45102 12.709Z" fill="white"/>
<path fill-rule="evenodd" clip-rule="evenodd" d="M23.712 12.913C23.6926 11.7709 22.992 10.64 21.4486 10.6662C20.0257 10.6903 19.2634 11.8256 19.2832 12.9882C19.3043 14.2306 20.1648 15.3187 21.5475 15.2952C22.4893 15.2792 23.4028 14.7826 23.5693 13.9581C23.5879 13.8576 23.5046 13.6985 23.3646 13.7009L22.6834 13.7125C22.6265 13.7128 22.5708 13.7283 22.522 13.7573C22.4731 13.7863 22.4328 13.8277 22.4052 13.8774C22.2097 14.1619 21.9315 14.3072 21.5106 14.3143C20.9295 14.3242 20.5208 13.8695 20.4718 13.3498L23.3377 13.3011C23.5982 13.2967 23.7161 13.1544 23.712 12.9137L23.712 12.913ZM20.4775 12.4878C20.5089 11.9861 20.9428 11.5981 21.4643 11.5892C22.0054 11.5801 22.4529 11.9533 22.5016 12.4536L20.4775 12.4878Z" fill="white"/>
<path fill-rule="evenodd" clip-rule="evenodd" d="M14.2502 9.34551L4.99148 9.5027C4.94149 9.50355 4.89216 9.51424 4.8463 9.53416C4.80044 9.55408 4.75896 9.58284 4.72422 9.6188C4.68948 9.65476 4.66217 9.69722 4.64385 9.74373C4.62552 9.79025 4.61654 9.83993 4.61742 9.88992L4.69919 13.537C4.69919 13.537 2.65339 9.96343 2.55063 9.78466C2.48758 9.68124 2.39839 9.59625 2.29205 9.53824C2.18571 9.48024 2.06596 9.45127 1.94487 9.45424L1.18335 9.46717C1.13324 9.46787 1.08376 9.47846 1.03775 9.49833C0.991745 9.5182 0.950116 9.54696 0.915253 9.58296C0.88039 9.61897 0.852981 9.6615 0.834599 9.70812C0.816217 9.75474 0.807224 9.80454 0.808135 9.85464L0.898638 15.1853C0.902379 15.4056 1.06664 15.5633 1.28586 15.5596L1.76677 15.5514C1.98715 15.5477 2.14481 15.3845 2.14106 15.1642L2.0584 11.4372C2.0584 11.4372 4.12393 15.0303 4.22669 15.1689C4.33024 15.3675 4.53246 15.5044 4.81353 15.4997L5.51482 15.4878C5.7352 15.484 5.89286 15.3209 5.88912 15.1005L5.80916 10.3914L14.2655 10.2478C14.3342 10.2454 14.3992 10.2164 14.447 10.167C14.4948 10.1176 14.5215 10.0516 14.5216 9.98283L14.5151 9.60185C14.5128 9.53314 14.4839 9.468 14.4345 9.42018C14.3852 9.37236 14.3191 9.34558 14.2504 9.3455L14.2502 9.34551Z" fill="white"/>
<path fill-rule="evenodd" clip-rule="evenodd" d="M12.7867 11.6957C13.1875 11.6889 13.4906 11.8241 13.6152 12.0824C13.6574 12.2021 13.7579 12.2205 13.8982 12.2181L14.4594 12.2086C14.5397 12.2073 14.6584 12.1249 14.6563 12.0049C14.6454 11.3636 13.854 10.7951 12.7719 10.8135C11.6509 10.8323 10.9175 11.3865 10.9318 12.2295C10.943 12.8909 11.4705 13.263 12.0948 13.4331C12.3958 13.4883 12.8993 13.5998 13.1411 13.676C13.3826 13.7321 13.6244 13.8081 13.6282 14.0285C13.6343 14.3892 13.2753 14.4962 12.8544 14.5033C12.4737 14.5098 12.0902 14.3547 11.9853 14.0772C11.9225 13.9167 11.8017 13.9 11.6416 13.9027L11.0799 13.9123C10.9798 13.914 10.8612 14.0159 10.8633 14.1362L10.8646 14.2165C10.8752 14.8377 11.7279 15.4647 12.89 15.4449C13.6917 15.4313 14.8282 15.0713 14.8098 13.9888C14.7989 13.3475 14.3705 12.9142 13.6662 12.7458C13.4044 12.69 12.7603 12.5205 12.6196 12.5025C12.3575 12.4269 12.1159 12.3509 12.1125 12.1506C12.1067 11.81 12.405 11.7045 12.7862 11.698L12.7867 11.6957Z" fill="white"/>
</g>
<defs>
<clipPath id="clip0_761_10296">
<rect width="23.0796" height="23.0796" fill="white" transform="translate(0.541779 1.00262) rotate(-0.972665)"/>
</clipPath>
</defs>
</svg>
