<svg width="14" height="14" viewBox="0 0 14 14" fill="none" xmlns="http://www.w3.org/2000/svg">
<path d="M9.33 3.624C9.42949 3.71145 9.49021 3.83481 9.49883 3.96698C9.50746 4.09916 9.46328 4.22936 9.376 4.329L5.876 8.329C5.83097 8.3806 5.77581 8.42239 5.71396 8.45179C5.6521 8.48119 5.58487 8.49757 5.51643 8.49991C5.44798 8.50226 5.37978 8.49051 5.31606 8.46542C5.25234 8.44032 5.19446 8.40239 5.146 8.354L3.146 6.354C3.09951 6.30751 3.06264 6.25232 3.03748 6.19158C3.01232 6.13084 2.99937 6.06574 2.99937 6C2.99937 5.93426 3.01232 5.86916 3.03748 5.80842C3.06264 5.74768 3.09951 5.69249 3.146 5.646C3.19249 5.59951 3.24768 5.56264 3.30842 5.53748C3.36916 5.51232 3.43426 5.49937 3.5 5.49937C3.56574 5.49937 3.63084 5.51232 3.69158 5.53748C3.75232 5.56264 3.80751 5.59951 3.854 5.646L5.476 7.268L8.624 3.671C8.71131 3.57137 8.83459 3.51046 8.96678 3.50165C9.09896 3.49284 9.23024 3.53684 9.33 3.624ZM0 3C0 2.20435 0.316071 1.44129 0.87868 0.87868C1.44129 0.316071 2.20435 0 3 0H9C9.79565 0 10.5587 0.316071 11.1213 0.87868C11.6839 1.44129 12 2.20435 12 3V9C12 9.79565 11.6839 10.5587 11.1213 11.1213C10.5587 11.6839 9.79565 12 9 12H3C2.20435 12 1.44129 11.6839 0.87868 11.1213C0.316071 10.5587 0 9.79565 0 9V3ZM3 1C2.46957 1 1.96086 1.21071 1.58579 1.58579C1.21071 1.96086 1 2.46957 1 3V9C1 9.53043 1.21071 10.0391 1.58579 10.4142C1.96086 10.7893 2.46957 11 3 11H9C9.53043 11 10.0391 10.7893 10.4142 10.4142C10.7893 10.0391 11 9.53043 11 9V3C11 2.46957 10.7893 1.96086 10.4142 1.58579C10.0391 1.21071 9.53043 1 9 1H3ZM2.754 13C3.304 13.614 4.101 14 4.99 14H9.49C10.0809 14 10.6661 13.8836 11.2121 13.6575C11.758 13.4313 12.2541 13.0998 12.672 12.682C13.0898 12.2641 13.4213 11.768 13.6475 11.2221C13.8736 10.6761 13.99 10.0909 13.99 9.5V5C13.99 4.116 13.607 3.32 12.999 2.772V8C12.999 8.1 12.9957 8.19967 12.989 8.299V9.499C12.989 10.4273 12.6203 11.3175 11.9639 11.9739C11.3075 12.6303 10.4173 12.999 9.489 12.999H8.055L7.999 13H2.754Z" fill="white"/>
</svg>
