<svg width="20" height="20" viewBox="0 0 20 20" fill="none" xmlns="http://www.w3.org/2000/svg">
<path fill-rule="evenodd" clip-rule="evenodd" d="M14.1243 0C14.6171 0 15.0171 0.4 15.0171 0.892857V2.06429C15.0171 2.30109 14.9231 2.52819 14.7556 2.69563C14.5882 2.86307 14.3611 2.95714 14.1243 2.95714C13.8875 2.95714 13.6604 2.86307 13.4929 2.69563C13.3255 2.52819 13.2314 2.30109 13.2314 2.06429V0.892857C13.2314 0.4 13.6314 0 14.1243 0ZM5.78143 12.4829C6.24295 12.4922 6.70169 12.4094 7.1308 12.2393C7.55992 12.0691 7.95077 11.8151 8.28047 11.492C8.61018 11.1689 8.8721 10.7833 9.05092 10.3577C9.22973 9.93216 9.32183 9.47518 9.32183 9.01357C9.32183 8.55196 9.22973 8.09499 9.05092 7.66941C8.8721 7.24384 8.61018 6.85823 8.28047 6.53514C7.95077 6.21206 7.55992 5.95801 7.1308 5.78787C6.70169 5.61773 6.24295 5.53492 5.78143 5.54429C4.87351 5.56271 4.00899 5.93632 3.3734 6.58493C2.73782 7.23354 2.38183 8.10546 2.38183 9.01357C2.38183 9.92168 2.73782 10.7936 3.3734 11.4422C4.00899 12.0908 4.87351 12.4644 5.78143 12.4829ZM0 19.4214C0.0238577 17.9037 0.64354 16.4561 1.72531 15.3912C2.80707 14.3263 4.26418 13.7295 5.78214 13.7295C7.30011 13.7295 8.75721 14.3263 9.83898 15.3912C10.9207 16.4561 11.5404 17.9037 11.5643 19.4214C11.5643 19.5749 11.5033 19.722 11.3948 19.8305C11.2863 19.939 11.1392 20 10.9857 20H0.578571C0.425125 20 0.277963 19.939 0.16946 19.8305C0.0609565 19.722 0 19.5749 0 19.4214ZM19.5943 3.56143C19.6924 3.49499 19.7764 3.40967 19.8412 3.31046C19.906 3.21124 19.9505 3.10011 19.9719 2.98354C19.9934 2.86697 19.9914 2.7473 19.9661 2.63151C19.9408 2.51572 19.8927 2.40612 19.8246 2.30911C19.7565 2.2121 19.6698 2.12961 19.5695 2.06646C19.4692 2.00331 19.3573 1.96077 19.2404 1.9413C19.1235 1.92184 19.0039 1.92585 18.8885 1.95309C18.7732 1.98034 18.6644 2.03028 18.5686 2.1L17.61 2.77286C17.4206 2.91062 17.2929 3.11726 17.2545 3.34827C17.216 3.57927 17.2699 3.81614 17.4044 4.00783C17.5389 4.19951 17.7434 4.33067 17.9737 4.37302C18.204 4.41539 18.4418 4.36556 18.6357 4.23429L19.5943 3.56143ZM8.43286 2.31857C8.29703 2.51224 8.2436 2.7519 8.28431 2.98492C8.32503 3.21794 8.45655 3.42529 8.65 3.56143L9.61 4.23429C9.70585 4.30401 9.81462 4.35395 9.92996 4.38119C10.0453 4.40844 10.1649 4.41245 10.2818 4.39298C10.3988 4.37352 10.5106 4.33097 10.6109 4.26782C10.7112 4.20468 10.7979 4.12219 10.866 4.02518C10.9341 3.92816 10.9822 3.81857 11.0075 3.70277C11.0328 3.58698 11.0348 3.46731 11.0133 3.35074C10.9919 3.23418 10.9475 3.12304 10.8826 3.02383C10.8178 2.92461 10.7339 2.8393 10.6357 2.77286L9.67571 2.1C9.48204 1.96417 9.24239 1.91075 9.00936 1.95146C8.77634 1.99217 8.569 2.12369 8.43286 2.31714V2.31857ZM14.0571 4.05714C14.48 4.053 14.8995 4.13232 15.2916 4.29057C15.6837 4.44882 16.0407 4.68288 16.3422 4.97935C16.6438 5.27581 16.8838 5.62885 17.0486 6.01825C17.2135 6.40764 17.2999 6.82574 17.3029 7.24857C17.2886 8.42 16.5886 9.53429 15.54 10.0571V11.6471C15.537 11.7394 15.4985 11.8269 15.4325 11.8913C15.3664 11.9558 15.278 11.9922 15.1857 11.9929H13.06C12.9677 11.9922 12.8793 11.9558 12.8132 11.8913C12.7472 11.8269 12.7087 11.7394 12.7057 11.6471V10.0843C12.2014 9.82742 11.7735 9.44251 11.4648 8.96813C11.1562 8.49374 10.9777 7.94656 10.9471 7.38143C10.9325 6.9588 11.0013 6.53742 11.1498 6.14144C11.2982 5.74547 11.5233 5.38268 11.8123 5.07387C12.1012 4.76505 12.4482 4.51628 12.8334 4.34182C13.2186 4.16735 13.6345 4.07061 14.0571 4.05714Z" fill="white"/>
</svg>
