<svg width="86" height="73" viewBox="0 0 86 73" fill="none" xmlns="http://www.w3.org/2000/svg">
<path d="M86 55.6634C86 60.302 84.2373 64.2913 80.712 67.6311C77.3722 70.7853 73.1046 72.3625 67.9094 72.3625C62.1575 72.3625 57.3333 70.3215 53.4369 66.2395C49.5405 62.1575 47.5922 56.3128 47.5922 48.7055C47.5922 33.6764 51.3959 22.0798 59.0032 13.9159C66.7961 5.56634 75.3312 0.927723 84.6084 0V13.0809C78.671 14.3797 73.754 17.7195 69.8576 23.1003C65.9612 28.4811 63.9202 34.1402 63.7346 40.0777C65.0334 39.1499 66.8889 38.6861 69.301 38.6861C74.1251 38.6861 78.1144 40.2632 81.2686 43.4175C84.4229 46.3862 86 50.4682 86 55.6634ZM38.4078 55.6634C38.4078 60.302 36.6451 64.2913 33.1197 67.6311C29.7799 70.7853 25.5124 72.3625 20.3172 72.3625C14.5653 72.3625 9.7411 70.3215 5.84466 66.2395C1.94822 62.1575 0 56.3128 0 48.7055C0 33.6764 3.80367 22.0798 11.411 13.9159C19.2039 5.56634 27.7389 0.927723 37.0162 0V13.0809C31.0788 14.3797 26.1618 17.7195 22.2654 23.1003C18.3689 28.4811 16.3279 34.1402 16.1424 40.0777C17.4412 39.1499 19.2967 38.6861 21.7087 38.6861C26.5329 38.6861 30.5221 40.2632 33.6764 43.4175C36.8306 46.3862 38.4078 50.4682 38.4078 55.6634Z" fill="#B2E1C8"/>
</svg>
