<svg width="20" height="14" viewBox="0 0 20 14" fill="none" xmlns="http://www.w3.org/2000/svg">
<path d="M12.5 0.333374C11.6159 0.333374 10.7681 0.684563 10.143 1.30968C9.51784 1.93481 9.16665 2.78265 9.16665 3.66671C9.16665 4.55076 9.51784 5.39861 10.143 6.02373C10.7681 6.64885 11.6159 7.00004 12.5 7.00004C13.384 7.00004 14.2319 6.64885 14.857 6.02373C15.4821 5.39861 15.8333 4.55076 15.8333 3.66671C15.8333 2.78265 15.4821 1.93481 14.857 1.30968C14.2319 0.684563 13.384 0.333374 12.5 0.333374ZM12.5 1.91671C12.7298 1.91671 12.9574 1.96197 13.1697 2.04992C13.382 2.13786 13.5749 2.26677 13.7374 2.42927C13.8999 2.59177 14.0288 2.78469 14.1168 2.99701C14.2047 3.20933 14.25 3.43689 14.25 3.66671C14.25 3.89652 14.2047 4.12408 14.1168 4.3364C14.0288 4.54872 13.8999 4.74164 13.7374 4.90414C13.5749 5.06665 13.382 5.19555 13.1697 5.2835C12.9574 5.37144 12.7298 5.41671 12.5 5.41671C12.2702 5.41671 12.0426 5.37144 11.8303 5.2835C11.618 5.19555 11.425 5.06665 11.2625 4.90414C11.1 4.74164 10.9711 4.54872 10.8832 4.3364C10.7952 4.12408 10.75 3.89652 10.75 3.66671C10.75 3.20258 10.9344 2.75746 11.2625 2.42927C11.5907 2.10108 12.0359 1.91671 12.5 1.91671ZM3.33331 2.83337V5.33337H0.833313V7.00004H3.33331V9.50004H4.99998V7.00004H7.49998V5.33337H4.99998V2.83337H3.33331ZM12.5 7.83337C10.275 7.83337 5.83331 8.94171 5.83331 11.1667V13.6667H19.1666V11.1667C19.1666 8.94171 14.725 7.83337 12.5 7.83337ZM12.5 9.41671C14.975 9.41671 17.5833 10.6334 17.5833 11.1667V12.0834H7.41665V11.1667C7.41665 10.6334 9.99998 9.41671 12.5 9.41671Z" fill="white"/>
</svg>
